<?xml version="1.0" encoding="utf-8"?>
<svg xmlns="http://www.w3.org/2000/svg" xmlns:xlink="http://www.w3.org/1999/xlink" viewBox="0 0 3750 2083" enable-background="new 0 0 3750 2083">
  <style>
    .st2{fill:none;stroke:#008787;stroke-linejoin:round;stroke-miterlimit:10}.st2,.st3,.st5{stroke-width:4;stroke-linecap:round}.st3{fill:none;stroke:#008787;stroke-linejoin:round}.st5{stroke-miterlimit:10;stroke-dasharray:12}.st5,.st6,.st8{fill:none;stroke:#008787;stroke-linejoin:round}.st6{stroke-miterlimit:10;stroke-width:61;stroke-dasharray:4,30}.st8{stroke-width:30;stroke-dasharray:4,20}.st13,.st8,.st9{stroke-miterlimit:10}.st9{fill:none;stroke:#008787;stroke-linejoin:round;stroke-dasharray:4,20;stroke-width:20}.st13{stroke-width:4;stroke-linecap:round}.st13,.st14,.st16,.st17,.st19,.st20{fill:none;stroke:#54ffbd;stroke-linejoin:round}.st14{stroke-width:4;stroke-linecap:round}.st16,.st17,.st19,.st20{stroke-miterlimit:10}.st16{stroke-linecap:round;stroke-width:4;stroke-dasharray:12}.st17,.st19,.st20{stroke-width:61;stroke-dasharray:4,30}.st19,.st20{stroke-width:30;stroke-dasharray:4,20}.st20{stroke-width:20}
  </style>
  <g id="Sroke">
    <defs>
      <path id="SVGID_1_" d="M0 0h3750v2083H0z"/>
    </defs>
    <clipPath id="SVGID_2_">
      <use xlink:href="#SVGID_1_" overflow="visible"/>
    </clipPath>
    <g opacity=".8" clip-path="url(#SVGID_2_)">
      <path class="st2" d="M3134.6 989.9c1.1 8.3 1.9 16.6 2.3 25.1M3124.8 946.5c2 6.2 3.7 12.6 5.2 19M3107.7 904.6c3.1 6 5.9 12.1 8.5 18.4M3084.3 867c3.8 5.2 7.5 10.5 11 15.9M2868.4 1035.4v10.4c0 7.3 7.5 12.1 14.1 9.1 12.3-5.4 20.9-17.7 20.9-32 0-20.4-17.4-36.7-38.2-34.9-19 1.7-32.9 19.3-31.7 38.3.8 12.7 7.2 22.7 21.3 28.8 11.8 5.1 12.2 12.9 8.9 23-6.6 20.2-28.3 57.6 17.2 55.2 31.2-1.7 41.8-26.7 39.3-49.4-1.2-11.1-5-21.1-5.4-34.8-.7-23.1 16.8-33.9 27.9-41.8 23.4-16.8 26-30.3 22.8-45.4-3.3-15.4-23.4-30.6-43.4-26.4-9.2 1.9-17.6 6.7-26.3 14.9-12.3 11.4-21.9 19.1-43.6 20.8-10.9.9-21-4.1-30.7-8.9-7.4-3.7-19.1-10.2-27.3-5.3-12.4 7.4-1.2 26 3.2 34.7 4.5 8.9 8.7 17.2 9.2 25.5.9 13.9-6.1 25.5-12.2 35.7-2.6 4.4-5.1 8.5-6.7 12.3-2.4 5.8-1.4 12.5 2.8 17 5.2 5.6 13.9 6.9 24.7 3.4 11.2-3.6 19.9-5.1 27.5-5.1 8.2 0 15.3 1.7 23.3 4.5s15.4 7.9 22.5 12.9c6.2 4.3 12.6 9.2 20.1 11.5 7.5 2.4 15.5.5 21.3-3 5.6-3.4 10.1-8.9 11.3-15.4 1.5-7.8-.1-14.3-1.2-19-1.9-7.8-3.8-15.8-3.4-21.2.9-12.3 7.8-17.8 18.8-25.7 27.5-19.8 37.2-40.7 31.4-67.8-6.8-31.7-42.2-48.9-69.3-43.2-13.1 2.8-25.1 9.4-36.8 20.3-10.2 9.5-15.4 13.8-30.4 15-4.9.4-12.2-3.2-19.2-6.7-14.6-7.2-36.8-18.2-56 2.7-16.6 18-5.5 40 2.6 56.1 3.1 6.2 6.7 13.3 6.9 17.1.5 7-4.2 14.7-9.1 22.9-2.9 4.9-6 9.9-8.2 15.2-5.7 13.7-3 29.4 6.8 40.2 11.1 12.1 28.4 15.6 47.5 9.5 19.6-6.2 26.5-4.4 37-.7 5.2 1.8 11 5.9 17.3 10.2 10.4 7.2 20.7 15 36.2 15.7 14.8.7 28-3.3 45.1-19.6 4.7-4.4 11.8-5 17.1-1.4l80.6 54.5"/>
      <circle class="st2" cx="2930.7" cy="968.8" r="12.5"/>
      <path class="st2" d="M2939.9 960.4l127-95.7"/>
      <circle class="st2" cx="3076.7" cy="855.7" r="12.5"/>
      <circle class="st2" cx="3101.7" cy="893.7" r="12.5"/>
      <circle class="st2" cx="3120.7" cy="934.7" r="12.5"/>
      <circle class="st2" cx="3132.7" cy="977.7" r="12.5"/>
      <circle class="st2" cx="2868.2" cy="1021.7" r="12.5"/>
      <circle class="st2" cx="2711.2" cy="1053.7" r="12.5"/>
      <path class="st2" d="M2723.5 1051.4l132.8-25.7M2588.4 1077.5l110.3-21.3"/>
      <circle class="st2" cx="2576.4" cy="1081.1" r="12.5"/>
      <path class="st2" d="M2749.5 1102.6c11.4 18.1 26.6 33.5 44.8 45.1 3.5 2.3 4.7 6.9 2.7 10.6l-50.2 90.9c-2.2 4-7.2 5.4-11.1 3-39-23.5-71.4-56.9-93.9-96.6-2.3-4-.6-9.1 3.5-11.1l94-44.9c3.7-1.6 8.1-.4 10.2 3z"/>
      <path class="st2" d="M2835.5 862.1c36.7-6.4 62.4-27.9 62.4-55.4 0-23.6-19.3-29.2-25.8-29.2s-25.7 4.8-25.7 29.2c0 27.6 25.3 49 62.1 55.4 80.9 17.9 137.9 93.3 130.5 178.1-8 92.2-89.1 160.3-181.3 152.3-64.3-5.6-117-46.8-140.2-102.5-1.6-3.8 0-8.2 3.7-10.2 8-4.2 20.1-13.8 16.6-31.5-3.5-17.6-17.4-22.7-26.1-24.2-4-.7-7-4.3-6.7-8.4.1-1.5.2-3.1.3-4.6 6.4-74.6 60.8-133.5 130.2-149zM2872.2 794.7v22.9M2883.7 806.2h-23M2908 1353h-49.7c-4.4 0-8-3.6-8-8v-65.3c0-4.4 3.6-8 8-8h49.7c4.4 0 8 3.6 8 8v65.3c0 4.4-3.6 8-8 8z"/>
      <path class="st2" d="M2913.7 1350.1l-32.1-32.1c-3.1-3.1-3.1-8.2 0-11.3l32.1-32.1M2713.1 1175.3l-20.1 3.9c-2.1.4-3 3-1.6 4.7l13.4 15.4c1.4 1.7 4.1 1.1 4.8-.9l6.7-19.3c.8-2.2-1-4.2-3.2-3.8z"/>
      <circle class="st2" cx="3136.7" cy="1180.7" r="12.5"/>
      <circle class="st2" cx="3155.1" cy="1126.4" r="12.5"/>
      <circle class="st2" cx="3207.1" cy="1152.8" r="12.5"/>
      <circle class="st2" cx="3133.6" cy="1256.3" r="12.5"/>
      <circle class="st2" cx="3042.4" cy="1289.9" r="12.5"/>
      <circle class="st2" cx="3042.4" cy="1289.9" r="23.3"/>
      <circle class="st2" cx="3065.7" cy="1173.7" r="12.5"/>
      <circle class="st2" cx="3065.7" cy="1173.7" r="23.3"/>
      <circle class="st2" cx="2623.2" cy="855.7" r="12.5"/>
      <circle class="st2" cx="2565.7" cy="818.8" r="12.5"/>
      <path class="st2" d="M2576.1 825.6l37 22.9M3042.4 1277.4l20.6-91.5M3074.9 1165.3l67.7-37M3167.6 1130.3l28.5 16.5M3197.9 1161.2l-48.7 19.5M3077.4 1178.2l46.8 2.5M3054.9 1289.9l67.4-28.2M3136.7 1193.2l-1.6 50.7M3142.6 1169.7l9.8-31.1M3030.3 1412.4l-31.9 11.1c-2.1.7-4.4-.4-5.1-2.5l-20.9-59.9c-.7-2.1.4-4.4 2.5-5.1l31.9-11.1c2.1-.7 4.4.4 5.1 2.5l20.9 59.9c.7 2.1-.4 4.4-2.5 5.1zM3006 1412.3l10.6-3.7M2872.2 777.4v-30.6M2869.5 722.7l-10.9 18.9c-1.2 2 .3 4.6 2.6 4.6h21.8c2.3 0 3.8-2.5 2.6-4.6l-10.9-18.9c-1.1-2.1-4-2.1-5.2 0zM3308.8 1006.3l9.7-19.6c1-2.1-.6-4.5-2.9-4.4l-21.8 1.3c-2.3.1-3.6 2.8-2.3 4.7l12.1 18.2c1.3 2.1 4.2 1.9 5.2-.2zM3195.8 1285.4l-20.7 24.4c-5.2 6.1-14.3 6.9-20.4 1.7-6.1-5.2-6.9-14.3-1.7-20.4l20.7-24.4c5.2-6.1 14.3-6.9 20.4-1.7 6.1 5.2 6.9 14.3 1.7 20.4zM3144.1 1263.1l19.4 15.7"/>
      <circle class="st2" cx="3205.3" cy="904.6" r="12.5"/>
      <path class="st2" d="M3145.5 1340l-11.5 10c-1.2 1.1-3.1.9-4.2-.3l-27.3-31.4c-1.1-1.2-.9-3.1.3-4.2l11.5-10c1.2-1.1 3.1-.9 4.2.3l27.3 31.4c1.1 1.3.9 3.1-.3 4.2zM3115.3 1362.3l-12.4 8.8c-1.3.9-3.2.6-4.1-.7l-24-34c-.9-1.3-.6-3.2.7-4.1l12.4-8.8c1.3-.9 3.2-.6 4.1.7l24 34c1 1.3.7 3.2-.7 4.1zM3181.3 1077.9s.5 4.3-2.1 5.2-9.2-5.3-13.5-3.3c-4.7 2.2-3.4 8 2.9 10.6 5.9 2.4 24.8 2 28.5-7.7 3.8-9.7-8.7-18.6-13.3-20.3M3107.8 799c30.6 34.2 55.5 73.6 73 116.8 5.6 13.8 21.1 20.8 35.1 15.6 14.3-5.3 21.5-21.2 16.2-35.5-18.6-50.4-47-96-83-134.5-10.4-11.1-27.8-11.8-38.9-1.5l-.6.6c-10.9 10.2-11.8 27.3-1.8 38.5zM2560.7 933l4.1-14.6c.4-1.6 2.1-2.5 3.7-2.1l40 11.3c1.6.4 2.5 2.1 2.1 3.7l-4.1 14.6c-.4 1.6-2.1 2.5-3.7 2.1l-40-11.3c-1.6-.5-2.5-2.1-2.1-3.7zM2759.4 623.2L2698 650c-3.2 1.4-7-.1-8.4-3.3l-38.4-88.1c-1.4-3.2.1-7 3.3-8.4l61.3-26.8c3.2-1.4 7 .1 8.4 3.3l38.4 88.1c1.5 3.3 0 7-3.2 8.4zM2976 1549.2l-52.6 7.1c-3.4.5-6.6-2-7.1-5.4l-13.3-98.7c-.5-3.4 2-6.6 5.4-7.1l52.6-7.1c3.4-.5 6.6 2 7.1 5.4l13.3 98.7c.4 3.5-2 6.7-5.4 7.1zM2938.7 1541.4l17.5-2.4"/>
      <ellipse transform="rotate(-45.001 3147.81 1426.663)" class="st2" cx="3147.8" cy="1426.6" rx="6" ry="6"/>
      <ellipse transform="rotate(-45.001 3163.696 1414.423)" class="st2" cx="3163.7" cy="1414.4" rx="6" ry="6"/>
      <ellipse transform="rotate(-45.001 3179.388 1402.01)" class="st2" cx="3179.4" cy="1402" rx="6" ry="6"/>
      <path class="st2" d="M3102.2 1517.5l-17.9 7.8c-1.9.8-4.2 0-5-2l-21.5-49c-.8-1.9 0-4.2 2-5l17.9-7.8c1.9-.8 4.2 0 5 2l21.5 49c.8 1.9-.1 4.2-2 5z"/>
      <path class="st3" d="M2759.4 607.4c1.9-.5 3.9-1 5.8-1.5"/>
      <path d="M2777 603c30.6-6.9 62.5-10.5 95.2-10.5 220.1 0 401.9 164.2 429.5 376.8" fill="none" stroke="#008787" stroke-width="4" stroke-linecap="round" stroke-linejoin="round" stroke-dasharray="12.0995,12.0995"/>
      <path class="st3" d="M3302.4 975.4l.6 6"/>
      <path class="st2" d="M2850 662.2l14.2-.2M3318.4 1070.4c-87.9-52.6-114.5-11-136.6-12.9"/>
      <path class="st2" d="M3209.6 916.6c7.4 22.8 12.5 46.6 15.1 71.2.9 8.7 8.7 15 17.4 14.2l85.7-8.2c8.5-.8 16.1 5.1 17.4 13.6 2.2 15-20.5 66.1-42.1 97.2M2571.9 807.9c68.3-93.2 179-154.1 302.7-154.1h1.5c4.6 0 8.3-3.7 8.2-8.3l-.6-59.9c0-2.8-2.3-5.1-5.1-5l-42.9.4c-2.8 0-5.1 2.3-5 5.1l.7 80.5c0 2.8 2.3 5.1 5.1 5l35.7-.4c148.7 0 276 91.5 328.6 221.3M3204.3 1165.3c-5.6 17.1-15.8 33.7-23.4 44.7-5.1 7.5-3 17.7 4.6 22.6l7.4 4.7c7.8 5 9.8 15.5 4.4 22.9-71.3 98.7-186.5 163.7-317 166.3-4.5.1-8.2-3.5-8.2-8v-13.1c0-4.4-3.5-7.9-7.8-8-200.9-4.2-362.7-167.7-364-369.4-.5-73.3 20.7-141.8 57.5-199.7"/>
      <circle class="st2" cx="2857.8" cy="624.7" r="12.5"/>
      <path class="st2" d="M2741.6 566.7c41.5-11.8 85.3-18.1 130.5-18.1 222.4 0 409.3 152.2 462.1 358.2 2.2 8.5 10.7 13.7 19.2 11.6l1096.1-260.3"/>
      <circle class="st2" cx="3207.3" cy="686.1" r="12.5"/>
      <circle class="st2" cx="2683.9" cy="1422.9" r="12.5"/>
      <circle class="st2" cx="2796.8" cy="1430.6" r="12.5"/>
      <path class="st2" d="M2555.8 1507.9s.2 8.4-4.6 15.8c-4.8 7.3-28.5 19-35.7 56.7-7.2 37.7 1.8 80.7 18.9 99 36.5 39.2 101.1-29.1 101.1-29.1M2950.1 1570.6l-7.8 18.9c-.8 2 .8 4.2 3 3.9l20.2-2.7c2.2-.3 3.2-2.8 1.9-4.6L2955 1570c-1.3-1.7-4-1.4-4.9.6z"/>
      <ellipse transform="rotate(-45.001 2809.492 1507.972)" class="st2" cx="2809.5" cy="1507.9" rx="7.5" ry="7.5"/>
      <ellipse transform="rotate(-45.001 2836.474 1510.26)" class="st2" cx="2836.5" cy="1510.2" rx="7.5" ry="7.5"/>
      <ellipse transform="rotate(-45.001 2863.456 1511.214)" class="st2" cx="2863.5" cy="1511.2" rx="7.5" ry="7.5"/>
      <ellipse transform="rotate(-45.001 2890.438 1511.215)" class="st2" cx="2890.4" cy="1511.2" rx="7.5" ry="7.5"/>
      <path class="st2" d="M2690.7 1626.6s12.5.8 16.2 15c3.7 14.3-15.1 74.3-21.8 119.5-4 27.1-3.1 54.2-10.5 54.3-7.7.1-4.2-39-3.3-56.8 1.2-24.1-6.1-69.6-.8-89.9M3194.9 1071.2c-.1-.3 5.1-3.6 9.9-4.4 3.4-.6 8.4 3.1 11.7-.1 6.6-6.3-5.9-17.8-5.9-17.8"/>
      <circle class="st2" cx="2357.6" cy="1226.4" r="12.5"/>
      <path class="st2" d="M2435.4 1268.1l1 20.4c.1 2.2 2.5 3.4 4.4 2.3l17.2-11c1.8-1.2 1.7-3.9-.2-4.9l-18.2-9.4c-2-1.1-4.3.4-4.2 2.6zM3318.4 1070.4s31.5 12.5 35.3 37.6c2.9 19.3-10.7 37.3-26.5 52.9-17.5 17.2-37.2 38.8-37.2 38.8s44.6 8.3 69.4 18.8c19.2 8.2 32.2 15.5 42.8 37.7 4.4 9.3 13.4 31 8 32-9.7 1.7-25-40.9-34.8-44.5-12.6-4.6-113-2.1-120.4-25.2-7.3-23.2 30.3-88.2 48-114"/>
      <path class="st2" d="M3285.3 1234.1s71.9 37.3 79.4 44.7 25 36.8 32.2 36.8c7.5 0-5.6-30.2-19.1-47.3-9.7-12.3-30.6-27.4-30.6-27.4M3313.9 1203s10.9-36.1 22.1-51.5M3209 1067.9c4.1 3.6 12.5 13.7 21.6 19.1 7.8 4.6 19.5 8 19.5 8M3273.4 1102.7l23.7 8.8"/>
      <path class="st2" d="M3236.3 1062.4s17.7 32.1 17.7 55-18.8 45-29.6 53.6c-10.7 8.4-26.7 19.7-24.8 26.1 1.9 6.4 15.5-5 28.7-16.3 14.5-12.5 40-32.1 44-55.3 4.8-28.1-8-63-8.7-64.3"/>
      <ellipse transform="rotate(-2.098 2270.453 1264.328) scale(.99997)" class="st2" cx="2270.5" cy="1264.3" rx="20" ry="20"/>
      <ellipse transform="rotate(-2.098 2211.2 1222.645) scale(.99997)" class="st2" cx="2211.3" cy="1222.6" rx="20" ry="20"/>
      <ellipse transform="rotate(-89.01 2278.073 1192.064) scale(1.00005)" class="st2" cx="2278.1" cy="1192.1" rx="20" ry="20"/>
      <path class="st2" d="M2229.3 1214l30.8-13.2M2277.7 1212.1l-2.9 32.7M2226.6 1236.8l27.4 16.3M2576.3 1522c33.6-1 56.5-57.6 60.3-70.9 3.8-13.1 7.9-32.3 14.5-32.9s1.4 16.2-4 32.7c-6 18.2-5.4 41.8-29.3 69.6-11.4 13.3-19.1 18.1-28.1 21.7"/>
      <path class="st2" d="M2541.8 1532.9s32.9 16.9 68.9 5.7c24.1-7.5 40-35.2 46.2-48.9 6.3-13.9 11.6-34.4 18.9-34.6 7.3-.2 0 17.8-7.4 35.3-8.2 19.3-19.1 50.6-43.2 64.5-35 20.1-68.7 13.1-70.4 12.9M2575.9 1519.2s-2.9 17.5 1.7 22.9M2580.6 1620.4c0-16.6 9.1-52.6 9.1-52.6"/>
      <path class="st2" d="M2831.6 1364.7v-189.9c0-5.1 4.7-8.9 9.7-7.8 25.2 5.6 50.6 4.1 73.9-3.1 3.6-1.1 7.4.3 9.3 3.5l25 42.5c1.3 2.2.2 5.1-2.3 5.9-22.7 6.6-56.6 7.4-74.9 7.4-109.1 0-197.5-88.4-197.5-197.5 0-109.4 88.1-197.5 197.5-197.5 109.1 0 197.5 88.4 197.5 197.5 0 78.1-45.8 143.6-111.8 175.2-11.5 5.5-30.1 9.5-45.1 10.9-2.1.2-3.6 1.9-3.6 4l.2 20.8c0 4.4 3.6 8 8 8h17.8c4.4 0 8 3.6 8 8v73.4c0 4.4-3.6 8-8.1 8-14.1-.1-43-.3-57.1-.2-4.4 0-8.1-3.5-8.1-8v-59.2c0-4.4 3.6-8 8-8h42.8c4.4 0 8 3.6 8 8v102.6c0 4-2.9 7.4-6.9 7.9-16.2 2.3-32.8 3.4-49.6 3.4-47.8 0-93.4-9.5-135.1-26.6l-13.4-5.8c-4-1.8-8.6-.2-10.5 3.8l-15.3 32.3c-1 2.1-.1 4.5 2 5.5 15.6 7.5 23.6 25.6 17.9 42.4-5.7 16.7-22.9 26.3-39.7 22.8-2.5-.5-6.5 1.2-10.5 9.2"/>
      <path class="st2" d="M2645.6 424.3c-100.6 37.9-189.1 100.3-258.4 180-7.9 9.1-18.8 22.9-28.1 35-5.5 7.2-3.9 17.7 3.6 22.9l17.8 12.4c7.1 4.9 9 14.5 4.3 21.8L2371 718c-4.7 7.3-14.3 9.5-21.7 5.1l-42.5-25.5c-7.7-4.6-17.7-2-22.1 5.8-3 5.3-6.6 11.8-10.3 18.9-5.3 10.2-9.6 19.3-12.8 26.2-3.5 7.6-.5 16.6 6.8 20.6l169.8 94.3c8.4 4.6 18.9 1 22.5-7.9 14.4-34.7 33-67.2 55.3-96.9 5.1-6.8 4.1-16.3-2.4-21.8l-99.1-84.4c-6.7-5.7-7.5-15.8-1.8-22.5 11.1-13 22-24.8 34.4-36.8 5.6-5.4 14.5-5.5 20.1-.2 5.5 5.1 14 5.3 19.6.3 93.3-83.2 213.7-136.6 346.2-145.4 8.9-.6 16.5 6.2 17 15.1l2.2 39.7c.5 8.4 7.4 15 15.8 15.1l25 .3c8.5.1 15.6-6.4 16.2-14.9l2.6-38.8c.6-9 8.5-15.8 17.5-14.9 62.6 6.1 122.2 22.2 177.3 46.7 7 3.1 15.2.8 19.6-5.5l34.3-48.8c4.6-6.5 13.2-8.7 20.3-5.1 39.9 20.3 73.7 42.2 108.2 70.1 6.6 5.3 7.9 14.9 2.9 21.8l-33.5 46.6c-4.8 6.6-3.8 15.7 2.2 21.2 113.4 102.7 186 249.7 190.4 413.7.2 8.7-6.6 16.1-15.3 16.4l-43.4 1.8c-14 .6-25.8-10.3-26.3-24.3-.1-2.8-.2-5.5-.3-8.1-.5-13.6 9.9-25.2 23.5-26.1l18.8-1.3c13.7-.9 25.6 9.5 26.4 23.1.7 11.3 1 22.8 1 34.3 0 48.9-6.2 96.3-17.9 141.6-1.1 4.2-5.4 6.8-9.6 5.8l-.2-.1c-4.2-1-8.5 1.5-9.6 5.7-5.9 21.9-13.3 41.5-17.2 51.3-32.9 82-85.1 154.1-150.8 210.9-1.7 1.4-3.8 2.1-6 1.9l-23.1-2.3c-2-.2-3.9.3-5.5 1.5l-30.8 22.7c-3.5 2.6-8.4 1.9-11.1-1.5l-28.9-37.1c-2.7-3.5-2.1-8.5 1.4-11.2l62.2-49c3.4-2.7 8.3-2.2 11.1 1.1l30.5 36.4c2.8 3.3 2.4 8.2-.8 11.1l-3.6 3.2c-3.3 3-3.6 8.1-.5 11.4l29.7 31.7c3.2 3.4 8.6 3.4 11.7 0l46.4-50.2c3.1-3.4 2.8-8.7-.8-11.7L3186 1297"/>
      <path class="st2" d="M3266.1 564.5c131.4 111 211.1 275.7 211.1 461.2 0 68-11.2 133.4-31.9 194.5-2.7 7.9 1.2 16.5 8.9 19.8l62.2 26.6c8 3.4 11.8 12.6 8.6 20.7l-13.6 33.9c-3.3 8.3-12.8 12.2-21 8.8l-84.4-35.2c-8.3-3.5-12.1-13-8.5-21.2 25.6-57.4 45.1-127.2 51.3-190.9.3-3.2 3-5.6 6.2-5.6 3.7 0 6.6 3.2 6.3 6.8-.8 9.3-1.9 19.3-3.1 28.5-.6 4.2 2.2 8.1 6.3 8.9l84.8 17.4c4.5.9 8.8-2.1 9.5-6.6 5.3-34.6 8.1-70.1 8.1-106.3 0-108.4-26.4-227.1-78.6-324.5-4.2-7.8-14-10.7-21.8-6.5l-92.7 50.6c-7.4 4.1-16.8 1.6-21.2-5.6-16.6-26.6-35.1-51.7-55.4-75.3-5.4-6.3-5.1-15.8.8-21.7l75.1-75.8c6.1-6.2 6.2-16.1.2-22.4-62.5-65.1-137.5-118-221.3-154.8-7.8-3.4-16.9-.2-20.7 7.4l-10.3 20.3c-3.7 7.3-12.3 10.6-19.9 7.7-53.5-20.4-110.4-33.8-169.6-39.2-8.7-.8-15.1-8.4-14.5-17l1.3-19.4c.6-8.8-6.1-16.5-14.9-17.1-10.5-.7-21.4-1.3-31-1.3-3.1 0-6.8 0-10.7-.1-8.9-.1-16.1 7.1-16.1 16l-.1 21.6c0 8.4-6.5 15.4-14.9 15.9-56 3.6-110.1 14.4-161.3 31.4"/>
      <path class="st2" d="M3114.4 557.7c-15.1-7.8-30.7-14.8-46.6-21.1-8.2-3.3-12.3-12.5-9-20.8l62.5-158.6c3.2-8 12.1-12.1 20.2-9.2 10.3 3.7 25.1 9.6 41.9 18.2 17.4 8.9 32.9 19.2 43.1 26.5 7.1 5.1 8.8 14.9 3.8 22.1l-95.5 137.7c-4.5 6.7-13.2 8.8-20.4 5.2zM3400.7 1010.2c.2 5.9.3 11.9.3 17.8 0 68.5-13.1 132.5-36.9 192.6"/>
      <circle class="st2" cx="3400.8" cy="997.7" r="12.5"/>
      <path class="st2" d="M3215.6 573.5l-67.3-46.2c-7.3-5-9.1-15-4.1-22.2l26.7-38.9c5-7.3 15-9.1 22.2-4.1l67.3 46.2c7.3 5 9.1 15 4.1 22.2l-26.7 38.9c-5 7.2-15 9.1-22.2 4.1zM3419.8 670.1l-37-52.8c-5-7.2-3.3-17.2 3.9-22.3l79.5-55.7c7.2-5 17.2-3.3 22.3 3.9l37 52.8c5 7.2 3.3 17.2-3.9 22.3l-79.5 55.7c-7.2 5.1-17.2 3.3-22.3-3.9z"/>
      <path class="st2" d="M3483.6 618.7l-11.9-17c-1.3-1.8-.8-4.3 1-5.6l17-11.9c1.8-1.3 4.3-.8 5.6 1l11.9 17c1.3 1.8.8 4.3-1 5.6l-17 11.9c-1.8 1.2-4.3.8-5.6-1zM3436.8 581.6l35.1 50.1M3419.8 593.4l35.1 50.2M3402.9 605.3l35.1 50.2M3328.1 435.4l8.8 18.4c.9 2 3.7 2.2 4.9.4l11.6-16.8c1.2-1.8.1-4.3-2.1-4.4l-20.4-1.6c-2.2-.2-3.8 2-2.8 4zM3220.1 524l-9.8 13.2c-1.6 2.2-4.7 2.6-6.8 1l-20.5-15.3M3186.2 513.9l11.5-15.4c1.6-2.2 4.7-2.6 6.8-1l21.1 15.7"/>
      <path class="st2" d="M3197.2 512.3l-11 1.6-1.6-11M3210.6 523.6l11-1.6 1.6 11"/>
      <ellipse transform="rotate(-45.001 3617.016 1146.954)" class="st2" cx="3617" cy="1146.9" rx="7.5" ry="7.5"/>
      <ellipse transform="rotate(-45.001 3609.515 1185.432)" class="st2" cx="3609.5" cy="1185.4" rx="7.5" ry="7.5"/>
      <ellipse transform="rotate(-45.001 3602.344 1222.581)" class="st2" cx="3602.3" cy="1222.5" rx="7.5" ry="7.5"/>
      <ellipse transform="rotate(-45.001 3592.682 1259.73)" class="st2" cx="3592.7" cy="1259.7" rx="7.5" ry="7.5"/>
      <path class="st2" d="M3042.2 440.5l13.4 15.4c1.4 1.7 4.1 1.1 4.8-.9l6.7-19.3c.7-2.1-1.1-4.1-3.2-3.7l-20.1 3.9c-2.1.4-3 2.9-1.6 4.6zM2888.2 370h-14c-2.2 0-4-1.8-4-4v-14c0-2.2 1.8-4 4-4h14c2.2 0 4 1.8 4 4v14c0 2.2-1.8 4-4 4zM2888.2 425.2h-14c-2.2 0-4-1.8-4-4v-14c0-2.2 1.8-4 4-4h14c2.2 0 4 1.8 4 4v14c0 2.2-1.8 4-4 4zM2888.2 480.3h-14c-2.2 0-4-1.8-4-4v-14c0-2.2 1.8-4 4-4h14c2.2 0 4 1.8 4 4v14c0 2.2-1.8 4-4 4z"/>
      <circle class="st2" cx="2657" cy="419.3" r="12.5"/>
      <path class="st2" d="M2628.9 419.3c0-10.5 5.9-20.5 15.9-25.3 11.2-5.4 24.1-2.7 32.3 5.6M2660.5 558.3l11.9 27.9M2444.9 456.9l24.4 28.7c2.2 2.6 1.9 6.4-.7 8.6l-37.8 32.1c-2.6 2.2-6.4 1.9-8.6-.7l-24.4-28.7c-2.2-2.6-1.9-6.4.7-8.6l37.8-32.1c2.6-2.2 6.4-1.8 8.6.7z"/>
      <path class="st2" d="M2440.4 455.1l-2.8 34.3c-.3 3.3-3.2 5.8-6.5 5.6l-34.3-2.8M2358.8 542.1l13.2 15.6c1.4 1.7 4.1 1.2 4.8-.9l6.9-19.2c.7-2.1-1-4.1-3.2-3.8l-20.1 3.7c-2.1.4-3 3-1.6 4.6z"/>
      <circle class="st2" cx="2387.2" cy="757.4" r="6"/>
      <circle class="st2" cx="2408.2" cy="769.4" r="6"/>
      <circle class="st2" cx="2428.2" cy="781.4" r="6"/>
      <path class="st2" d="M2671.4 1418.1c-23.5-12-48.3-28.8-54.5-33.2-104.2-74.2-174.8-192.6-184.3-327.8-1.1-15.1-8.3-24-20.2-33.4-10.6-8.4-25.3-18.1-43.3-25.4"/>
      <path class="st2" d="M2272.3 1172.3c-10.7-45.6-17.7-97.7-17.7-146.6 0-92.6 20.4-180.5 56.9-259.3 2.2-4.8.3-10.5-4.3-13-7.6-4.2-10.6-13.6-6.6-21.4 7.6-14.8 15.5-28.7 24.4-43.1 4.7-7.7 14.9-9.9 22.5-4.9l118.9 78.8c7.2 4.7 9.3 14.3 4.8 21.7-7.6 12.6-14.6 25.5-21 38.8-4 8.2-14 11.4-22 7l-64.9-35.4c-7.9-4.3-10.7-14.2-6.3-22l19.3-34c2.2-3.9 7.2-5.2 11.1-2.9l58.6 35c3.7 2.2 5 6.9 2.9 10.7L2439 800c-2.1 3.9-7.1 5.3-10.9 3.2l-10.8-6c-.9-.5-2.1-.2-2.6.6l-3.6 5.4c-.9 1.3-2.9 1.1-3.5-.4l-6.1-15.1c-.2-.4-.5-.8-.9-1l-54.4-30.4c-7.7-4.3-10.5-14-6.2-21.7 11.2-20.3 23.4-39.8 36.8-58.6 5.1-7.2 15-8.9 22.2-3.8l19.3 13.6c6.9 4.9 16.4 3.5 21.7-3.1 52.2-64.8 121.3-120.6 198.1-156.9 8.2-3.9 18-.1 21.5 8.2l51.6 121.1c3.3 7.8 0 16.9-7.7 20.7-8.7 4.2-20.3 10.1-31.2 16.5-8.6 5.1-16.6 10.3-22.9 14.7-7.5 5.2-17.8 3-22.7-4.7L2529 546c-4.6-7.3-2.5-16.9 4.6-21.8 69.6-47.1 149.5-80 235.6-94.8 2-.3 4.1-.7 6.1-1 8.4-1.4 16.4 4.2 18.1 12.5l10.2 47.9c1.7 8 9.1 13.4 17.2 12.6 16.9-1.6 34-2.5 51.3-2.5 40.9 0 80.7 4.7 119 13.5 8.7 2 17.4-3.5 19.3-12.2l31.7-148.5c1.9-9 11-14.5 19.9-12.1 79.3 21.9 153.1 57.3 218.7 103.4 7.2 5 9 14.9 4 22.2l-87.2 127.2c-4.7 6.9-3.3 16.3 3.2 21.6 61.8 49.4 112.3 112.5 146.8 184.7 3.7 7.7 12.8 11.2 20.7 7.9l77.5-32.9c8.2-3.5 17.7.4 21.1 8.7 30.8 75.1 47.7 157.3 47.7 243.4 0 83.3-15.8 162.9-44.7 235.9-1.6 4 .3 8.6 4.3 10.3l17.1 7.3c4.1 1.7 5.9 6.4 4.2 10.5-2.9 6.8-7.3 17-10.9 24.4-2.8 5.8-5.3 10.9-7.3 14.8-1.9 3.9-6.6 5.5-10.5 3.7l-17.3-8c-3.8-1.8-8.4-.3-10.4 3.5-3 5.5-7.2 13.4-10.7 19.3-3.2 5.3-6.8 11.4-9.6 15.8-2.3 3.7-1.2 8.5 2.5 10.9l15.6 10.1c3.7 2.4 4.8 7.4 2.4 11.1-3.5 5.4-8.5 13-13 19.2-4.3 6-9.3 12.7-12.8 17.4a7.96 7.96 0 0 1-11.1 1.7l-15.3-10.9c-3.5-2.5-8.4-1.8-11 1.7-9.6 12.6-32.9 41.8-58.9 65.1-3.2 2.9-8.1 2.7-11.1-.3l-15.5-15.8c-3-3.1-7.9-3.2-11.1-.3-83.2 75.9-187.7 128.8-303.5 148.9-8.9 1.5-17.4-4.6-18.6-13.6l-2.2-16M2645.8 394l-10.7-26c-6.3-15.4-23.9-22.6-39.3-16.3-79.8 32.8-151.1 77.9-213.7 135.2-3.2 2.9-3.5 7.9-.6 11.2l37.3 42.8c3 3.4 8.1 3.7 11.5.6 17.3-16 34.3-30 53.3-44 3.7-2.7 4.4-8.1 1.4-11.6l-43.5-52c-5.5-6.5-15.1-7.7-21.9-2.5-15.9 12-29.9 23.6-44.7 36.9-6.4 5.8-16.3 5.4-22.3-.8l-39.6-41.4c-6.3-6.5-5.8-17 .9-23 58.1-52.1 123.6-96.3 194.7-130.6"/>
      <circle class="st2" cx="2520.2" cy="265.9" r="12.5"/>
      <path class="st2" d="M2476.8 231l-50.8 29.3c-3.8 2.2-8.7.9-10.9-2.9l-13.9-24.1c-2.2-3.8-.9-8.7 2.9-10.9l50.8-29.3c3.8-2.2 8.7-.9 10.9 2.9l13.9 24.1c2.2 3.8.9 8.7-2.9 10.9zM3183.8 1062.4s0-3.8-3.8-6.7c-4.6-3.4-9.9-2.2-10.9.9-1.9 5.8 4.3 7.5 4.3 7.5s-21.8 3.1-18.3 18.1c3.5 15.1-5.9 24.2-16.5 19.5-14.2-6.2-9.3-20.5-10.1-25.5-1.8-11.2-14.3-4.6-17.8-15.2-2.3-6.9 5.1-12.1 13.3-15.7 5.6-2.5 5.6-8.3 4-12-3.8-9.1.9-15.2 8.9-16.9 6.3-1.4 10.7 5.1 11.3 11.3.6 6 7.6 8.5 13 .4 5.5-8.4 15.1-7 16.3 6.4 1.3 14.4 24 4.6 26.2-8.8 2.5-15.6-3.4-25.9-4.9-39.7-2.1-18.8 7.6-27 21.5-29.8l14.6-2.9c17.2-3.4 27.8-20.8 23-37.7-20.2-70.9-59.5-133.9-111.9-182.9-11.7-11-30.1-10.6-41.5.7l-30.5 30.3c-5.5 5.5-14.1 6.1-20.5 1.7-29.8-20.8-63.3-36.5-99.3-46.1-2-.5-3.3-2.3-3.3-4.3v-.1c0-4-2.9-7.3-6.8-7.9l-57.1-7.5c-2-.3-3.8-1.3-5-2.9l-6.4-8c-1.6-2-4.6-2-6.2 0l-6.4 8c-1.3 1.6-3.1 2.6-5 2.9l-57.1 7.5c-3.9.6-6.8 4-6.8 7.9 0 2.1-1.3 3.9-3.3 4.4-50.9 13.6-96.8 39.5-134.2 74.4-6.1 5.6-15.5 5.6-21.6.1l-101.4-92.1c-6.8-6.2-7-16.8-.4-23.3 6.8-6.7 16.3-15.5 27.6-24.5 25.6-20.5 48.5-31.5 48.5-31.5l-4.1-7.1c-1.7-3 .8-6.6 4.2-5.9l52.9 10c2.3.4 3.8 2.8 3.1 5.1l-16.1 52.9c-.9 3.1-5 3.9-7 1.3l-6.1-7.9s-17.1 11-41.2 30.8c-13.3 11-25.8 23.7-34.3 32.8-6.2 6.7-5.6 17.2 1.4 23l42.5 36.2c6.5 5.6 7.6 15.3 2.2 22-45.7 57.7-73 130.7-73 210 0 59.7 16.5 117.5 43.7 166.3 2.2 3.9 1.1 8.8-2.6 11.4l-32.7 23.1c-4.8 3.4-5.9 10-2.5 14.7 3.4 4.8 10 5.9 14.7 2.5l30.5-21.5c4.7-3.4 11.3-2.1 14.5 2.8 2.9 4.5 1.9 10.5-2.4 13.7l-30.4 23.2c-4.7 3.6-5.5 10.3-1.8 14.8 3.6 4.5 10.2 5.2 14.6 1.6l30-24.2c4.2-3.4 10.2-2.7 13.6 1.4 3.2 3.9 2.9 9.6-.7 13.2l-27 26.3c-4.1 4-4.1 10.4-.1 14.4 4 4 10.4 4 14.4 0l28.5-28.5c3.3-3.3 8.4-3.6 12.1-.8 4 3.1 4.7 9 1.5 13l-23.3 27.6c-2.9 3.4-2.4 8.6 1.1 11.4l11.5 8.5c46.6 34.3 101.1 58.5 160.2 69.4 11.1 2 18.5 12.6 16.8 23.7-1.7 11.3-12.2 19.2-23.6 17.6-5.2-.7-11.8-1.5-18.1-2.8-10.8-2.1-18.3-4-23.7-5.7-2.9-.9-6 .5-7.2 3.4-2.3 5.5-9.1 17.2-18.2 22.8-12.7 7.9-30.4 11.6-62-4.4-28.7-14.5-90.3-49.6-127.2-84.9-3-2.8-3.3-7.4-.8-10.7l5-6.4c2.4-3.2 2.2-7.6-.6-10.5-34.1-34.5-62.8-74.4-84.8-118.2a8.06 8.06 0 0 0-11.1-3.4l-40.1 22.9c-3.7 2.1-5.1 6.8-3.2 10.6 9.4 18.5 19.9 36.5 31.4 53.7 5.1 7.6 15.6 9.4 22.9 3.9l61.2-46.1c3.4-2.6 8.3-2 11 1.4l21.8 27c2.8 3.5 2.2 8.6-1.3 11.3l-35.8 27.8c-6.9 5.4-16.8 4.2-22.3-2.6-10.6-13.2-27.7-34.9-40.6-53.9"/>
      <path class="st5" d="M3702.1 1455.5c7.9 4 17.6.8 21.6-7.2 63.3-127.2 98.9-270.6 98.9-422.3 0-248.4-95.5-474.5-251.8-643.6-6.2-6.7-16.6-6.9-23-.5l-50.5 50c-6.1 6.1-6.3 15.9-.5 22.3 138.3 150.5 222.8 351.4 222.8 571.9 0 135-31.7 262.7-88 375.9-3.9 7.9-.7 17.4 7.1 21.4l63.4 32.1z"/>
      <path class="st2" d="M3869.6 1230.6c10.6-52 17.3-105.4 19.7-159.9.2-4.6-3.4-8.4-8-8.4h-18.6c-4.3 0-7.8 3.4-8 7.7-2.3 52.4-8.8 103.7-19 153.7-.9 4.4 1.9 8.6 6.3 9.5l18.2 3.6c4.4.9 8.6-1.9 9.4-6.2zM2362.3 1238c2.2 5.3 4.6 10.5 6.9 15.7 3.3 7.1.8 15.5-5.6 19.9l-40.9 30.2c-6.8 4.6-9.1 13.6-5.2 20.9 25.1 46.6 56.3 90.5 93.4 130.2 4 4.3 5.7 10.3 4.5 16.1l-.9 4.5c-1.3 6.1.7 12.4 5.1 16.8 21.2 20.5 44 39.8 68.4 57.7 6.4 4.7 15.5 3.2 19.9-3.4 19-28 30.8-19.8 31.7-28.1.7-5.9-9.3-2.6-10.7-8.4-1.5-6.6 7.7-6.7 5.4-12.4-2.4-6.1-15.9.2-18.5-11.8-2.8-13 18.8-12 20.8-17.2s-8.9-5.4-8.5-14.8c.4-10 13.2-7.5 21.2-6.5s11 3.2 15.8-6.4 14.5-12.6 22.2-7.4 6.8 18.8-.8 27.2-21.5 6-28 12.8-3.2 21.8-3.2 21.8-4.4-2.9-8.7.6-1 10.7 4.4 11.9c3.6.8 7-.7 7-.7 3.2 4.7 17 16.2 26.9 9 9.9-7.2 4.7-28.7.2-34.6-4.7-6.4-11.7-6-12.8-.1-1 5.4 8 11.1 7.8 14.3-.2 3.2-5.2 3.9-5.2 3.9"/>
      <path class="st2" d="M2659.7 1483.1c10.1 7.3 22.1 12.1 33.7 16.6 12 4.7 24.3 8.7 36.6 12.5 37.7 11.5 76.8 17.9 116.1 19.9 8.7.4 17.4.7 26.1.7 125.5 0 240.4-45.6 329-121.2 3.3-2.8 3.8-7.8 1-11.2L3174 1366c-2.8-3.5-8-3.9-11.4-1-56.2 48.2-124 82.5-199 98-2.8.6-5 2.5-6 5.2l-12.7 36c-1.7 2.4-5.1 2.7-7.2.7l-17.1-16.1a6.39 6.39 0 0 0-5.1-1.7c-39.8 3.8-79.1 2.3-117-3.8-4.4-.7-8.5 2.3-9.2 6.7l-77.1 525.2c-1.3 8.7 4.7 16.9 13.5 18.2 47.8 6.9 96.8 10.5 146.5 10.5 426.7 0 792-262.5 943.4-634.7 1.6-4-.2-8.5-4.1-10.3l-16.9-7.8c-4.1-1.9-9 0-10.7 4.2-89.9 221.6-258.3 403-470.7 509.7-8 4-17.8.7-21.6-7.3l-60.3-125.2c-3.7-7.8-.5-17.2 7.2-21.1 264.8-133.9 446.4-408.6 446.4-725.6 0-448.8-363.8-812.7-812.7-812.7s-812.7 363.8-812.7 812.7c0 14.1.4 28.2 1.1 42.1v.3c.7 14.1 12.7 24.9 26.8 24.2l189.7-10.3c8.9-.5 15.7-8.2 15.1-17.1-.3-4.3-.5-8.5-.7-12.8-.2-4.6 3.4-8.4 8-8.4h10.8c4.3 0 7.8 3.4 8 7.6 2.6 56.9 15.2 111.5 34.3 162.6M1900.8 696.1c3.9 1.6 5.8 5.9 4.5 9.9-33.2 100.5-51.2 208-51.2 319.7 0 79.5 9.1 156.9 26.4 231.1 1 4.2-1.5 8.4-5.7 9.5l-13.3 3.7c-4.4 1.2-8.9-1.5-9.9-5.9-17.8-76.6-27.3-156.4-27.3-238.5 0-115.3 18.6-226.3 53-330 1.5-4.4 6.4-6.7 10.7-4.9l12.8 5.4zM1898.6 639.5c26.2-63.7 58.5-124.3 96.1-181 2.5-3.8 7.7-4.8 11.4-2.1l10.1 7.4c3.5 2.5 4.3 7.3 2 10.9-36.4 55.3-67 114.8-92.2 176.5-1.7 4.2-6.6 6.2-10.7 4.3l-12.6-5.7c-3.9-1.7-5.7-6.3-4.1-10.3zM3759.7 837.7l-18.5 4.7c-2.9.7-5.9-1-6.6-3.9l-4.7-18.5c-.7-2.9 1-5.9 3.9-6.6l18.5-4.7c2.9-.7 5.9 1 6.6 3.9l4.7 18.5c.7 2.9-1 5.9-3.9 6.6z"/>
      <circle class="st2" cx="3902.5" cy="699.3" r="12.5"/>
      <circle class="st2" cx="3765.6" cy="536.1" r="12.5"/>
      <circle class="st2" cx="3781.6" cy="649.8" r="12.5"/>
      <circle class="st2" cx="3678.8" cy="356.8" r="12.5"/>
      <circle class="st2" cx="3558.1" cy="321.3" r="12.5"/>
      <circle class="st2" cx="3523.7" cy="288.7" r="12.5"/>
      <circle class="st2" cx="3487.7" cy="258.7" r="12.5"/>
      <circle class="st2" cx="3918" cy="1091.5" r="12.5"/>
      <path class="st5" d="M3347.6 445.8C3515.1 583.3 3622 792 3622 1025.7v2.7c0 7.5 5.2 14.1 12.5 15.7l9.4 2.1c7.4 1.6 12.7 8.3 12.5 15.9-2.2 96.3-27.9 195.9-67 283.5-3.4 7.6-12 11.3-19.8 8.6l-6.6-2.3c-7.6-2.6-15.9.8-19.5 8-40.1 80.5-94.3 152.7-159.3 213.5-6.1 5.7-6.7 15.2-1.5 21.7l42.7 53.1c5.3 6.6 4.4 16.6-2 22.1-104.7 89.6-231.5 154.2-371.1 184.3-8.9 1.9-17.6-3.9-19.2-12.9l-.5-2.9c-1.5-8.7-9.8-14.6-18.5-13-47.9 8.4-97.2 12.7-147.6 12.3-253-1.7-489.5-124.5-637.2-306.8-5.3-6.6-16.9-9.8-23.7-4.9L988.8 2368.3"/>
      <path class="st2" d="M3562.9 1400.1c-81.8 150.6-211.5 271.5-368.6 342.2-8.2 3.7-11.7 13.3-7.9 21.4l100.2 211.6c3.7 7.9 13.1 11.4 21.1 7.7 136.9-62.5 258.2-153.6 356.5-265.7 2.9-3.4 8.1-3.7 11.4-.7l13.7 12.3c3.2 2.9 3.6 7.9.7 11.2-78.8 90.2-171.7 167.2-276.1 227.3-7.8 4.5-17.8 1.7-22.1-6.2l-52.5-96.7c-4.2-7.6-1.4-17.2 6.1-21.5 93.9-53.2 171-118.9 240.9-200.2 5.7-6.7 5-16.8-1.7-22.5L3391 1458.7"/>
      <circle class="st2" cx="3567.7" cy="1388.5" r="12.5"/>
      <path class="st2" d="M1928.3 1025.7c0 149.9 35 291.7 97.2 417.6 3.8 7.8 13.2 11 21.1 7.4l18.8-8.7c7.8-3.6 17-.5 20.9 7.1 92.7 176.4 239.2 310.3 422.1 391.7 8.3 3.7 17.9-.2 21.4-8.5l25.3-61.7c3.4-8.3-.6-17.9-9.1-21.1-17.2-6.6-45.2-22.1-66.3-58-23-39-23.3-81.9-22.3-99.7.3-5.3-2-10.4-6.2-13.7-110-83.9-194.2-200-238.5-334.1"/>
      <circle class="st2" cx="1928.3" cy="1011.9" r="12.5"/>
      <path class="st2" d="M2035.1 338.2l-19.1 7.2c-2 .8-2.5 3.5-.8 4.9l15.8 12.9c1.7 1.4 4.3.4 4.6-1.7l3.3-20.2c.4-2.2-1.7-3.9-3.8-3.1zM2063.1 703.4l-18-6.4c-2.8-1-4.3-4.1-3.3-7l6.4-18c1-2.8 4.1-4.3 7-3.3l18 6.4c2.8 1 4.3 4.1 3.3 7l-6.4 18c-1 2.8-4.1 4.3-7 3.3zM2044.8 679.7L416.9 9M2616.5 866.2c-28.9 46.3-45.6 100.9-45.6 159.5 0 9.4.4 18.8 1.3 28 14.9-2.9 28.2 7.3 31.1 22.2 2.9 14.9-6.2 29.2-21 32.1 12.5 44.3 34.9 84.4 64.7 117.9 2.9 3.3 7.9 3.6 11.2.7l38.5-33.4M3898.7 687.4c-142-431.1-547.9-742.2-1026.5-742.2-181.7 0-352.9 44.9-503.2 124.1-8 4.2-11 14.2-6.5 22.1l135 237.6c4.3 7.7 1.6 17.4-6 21.7-31.1 17.6-61 37.3-89.2 58.9-6.9 5.3-8.4 15.1-3.3 22.1l261.1 360.8c4.6 6.3 4 15.1-1.6 20.6-10.1 10.1-19.4 21-28 32.4M3917.2 1104c-1.4 19-3.3 37.8-5.7 56.5-.6 4.3 2.4 8.3 6.7 8.9l16.4 2.7c4.5.7 8.6-2.4 9.2-6.9 5.9-45.7 8.9-92.2 8.9-139.5 0-109.4-16.2-214.9-46.5-314.4"/>
      <path class="st2" d="M3686.8 366.5c145.9 180 233.3 409.4 233.3 659.2 0 17.9-.4 35.7-1.3 53.3"/>
      <path class="st2" d="M3758.1 523.6C3634.4 306 3432.9 138.3 3191.4 58.7c-3.9-1.3-6.2-5.3-5.3-9.3l2.9-13.6c1-4.7 5.8-7.4 10.3-5.9 185.3 60.9 347.9 172 471.4 317.3M3786 661.5c40.1 100.5 64.1 209.1 68.8 322.7.2 4.5 4 8 8.5 7.7l18.6-1.2c4.3-.3 7.7-4 7.5-8.3-6.6-156.8-48.6-304.4-118.3-435.1M3567.3 329.9c87.8 87.7 159 191.8 208.8 307.4M3532.9 297.1c5.5 5 11 10.1 16.5 15.3M3497.4 266.5c5.6 4.6 11.2 9.3 16.7 14.1"/>
      <path class="st2" d="M2881.9 331.1V58.6c0-9 7.4-16.2 16.4-16 218.4 5.7 419.1 82.6 579.7 208.3M3595.1 1566.2l-61.2 72.3c-2.9 3.4-7.9 3.8-11.3.9l-8.4-7.1c-3.4-2.9-3.8-7.9-.9-11.3l61.2-72.3c2.9-3.4 7.9-3.8 11.3-.9l8.4 7.1c3.4 2.9 3.8 7.9.9 11.3z"/>
      <path class="st2" d="M2022.2 357.8c-144.9 184.3-231 417.1-230.5 670.2.4 194.4 52.1 376.7 142.4 534.2 2.2 3.8 7.1 5.1 10.9 2.9l14.4-8.3c3.8-2.2 5.1-7.1 3-10.9-34-59.5-63.7-125.2-85.7-191.2-1.4-4.3 1-9 5.3-10.2l13.6-4c4.1-1.2 8.5 1.1 9.9 5.2 54.3 164.2 149.3 309.9 273 425.1 3.1 2.9 8.1 2.8 11.1-.2l13.1-13.1c3.2-3.2 3.1-8.5-.3-11.5-194.1-179.2-313.1-433.3-313.7-718.2-.1-31.4 1.4-62.5 4.2-93.2.8-8.7 8.3-15.1 17-14.6l167.3 11.2c8.4.6 15.8-5.4 16.9-13.7 10.8-78.2 35.1-155.7 67.1-224.8 2.5-5.4.4-11.8-4.9-14.6l-92-49.1c-3.8-2-5.3-6.8-3.4-10.6 4.2-8.3 7-14.5 11.3-22.7 2.1-3.9 7-5.4 10.9-3.3 18.7 10.1 69.7 37.8 91.1 49.3 5.3 2.9 12 1 15-4.3l.2-.3c3-5.3 1.2-12.1-4.1-15.2l-89.1-52.1c-3.8-2.2-5.1-7.2-2.8-11 4.1-6.8 8.7-14.3 12.9-21 2.4-3.8 7.5-4.9 11.2-2.4 17.8 11.9 65.5 43.7 85.8 57.3 5.1 3.4 12.1 2 15.5-3.1l.3-.5c3.4-5 2.1-11.8-2.8-15.3l-84.4-60.4c-3.5-2.5-4.4-7.4-2-11 4.7-6.8 9.5-13.6 14.3-20.3 2.6-3.6 7.6-4.3 11.2-1.7l84 61.7c4.8 3.6 11.6 2.6 15.4-2.1 3.8-4.8 3-11.7-1.6-15.5l-80.2-66.4c-3.4-2.8-3.9-7.7-1.2-11.1 5.6-7.1 10.1-12.4 16-19.2 2.9-3.4 8-3.7 11.3-.8 16.2 14.1 60.5 52.6 78.9 68.7 4.6 4 11.4 3.6 15.5-.8l.2-.2c4.2-4.6 3.9-11.7-.7-15.9l-70.4-63.7c-6.8-6.1-7-16.6-.7-23.1 80.4-81.9 177.9-150.3 284.1-197.2 7.8-3.4 17-.1 20.7 7.6l44.7 90.6c3.7 7.5 12.4 10.8 20.2 7.8 87-33.7 181.5-52.1 280.4-52.1 104.6 0 204.4 20.7 295.5 58.2 8.4 3.5 18-.7 21.1-9.3l38.6-105.2c3.2-8.7 13.1-12.9 21.6-9.1 148.3 66.4 275.8 170.9 370.3 300.9 5 6.9 3.7 16.6-3 21.9l-14 11.1c-7.1 5.7-17.5 4.3-22.9-3.1-93.5-129-221.5-231.5-370.4-293.8-52.9-22.2-108.5-39.3-166.2-50.7-6.1-1.2-12.2-2.3-18.3-3.4-8.9-1.6-17.3 4.5-18.6 13.4L2941.1 611c-1.2 7.8-7.9 13.6-15.8 13.6h-55M4479.2 1678.3l-467.5-209.2M3989.8 1461.6l11.9 16.6c1.3 1.8 4 1.5 4.9-.5l8.5-18.6c.9-2-.7-4.2-2.9-4l-20.3 2c-2.2.2-3.4 2.7-2.1 4.5zM3088.4 1676.7s-3.3 3.9-6.1 2.3-2.8-12.2-7.9-14.2c-5.6-2.3-9.6 3.5-6.8 10.9 2.6 6.9 18 22.9 29.4 18.4s9-22.3 6.8-27.6c0 0 3.1-2 4.4-5.5 1.8-5.2-2.5-11.8-7.7-10.1-2.1.7-3.3 1.9-4.1 3.2-.7 1.1-2.2 1.3-3 .2-2.1-3.1-6.4-7.2-14.3-8.2-7.1-.9-36.8-1.3-50.2 60.1M2838.2 1792.2c-111.3-4.4-224.4-39.3-292.5-71.9-28.7-13.8-33.2-52.9-8.1-72.5 61.7-48.1 140.9-53.2 150-41.1 9.4 12.5 2.8 22.4-10.6 49.5-16.5 33.2-43.7 73.8-52.5 94.4-9.9 23.3-19.9 68.4-27.2 57.1-5.4-8.3 4.3-32.6 8.9-52.3 6.2-26.9 12-58 17.9-77.9 10.3-34.4 25.4-45.8 25.4-45.8"/>
      <path class="st2" d="M3105.2 1682.6s14.9-2.3 17.7 2.8c5.2 9.5 16.5 11 18.8-1.3 1.6-8.6-2.1-19.2-12.8-19-7.6.2-14.8-.5-14.2-6s10.6-26.6-1-36.5c-11-9.3-18.4 2.4-30.7.3-12-2-14.2-12-26.3-7.6-9.6 3.4-4.7 17.4-9.6 23-6.4 7.5-20.5 4.6-36.2 2.6-21.4-2.6-62.5-8.2-84.9 35-13.8 26.4-14.7 55.7-14.7 73.4 0 11.1.1 20 .1 26.7.1 8.7-6.8 15.9-15.5 16.1-7.9.2-15.9.2-23.8.4-3.7.1-5.5.1-9.3.1"/>
      <path class="st2" d="M3119 1664.4c10.2-2.5 14.6-9.9 38.9-13 21.2-2.8 50.8 4.1 63.9 19.9 9.2 11.2 8.2 28.1 8.2 28.1M3154.5 1682.4s.2 29.2-16.3 52.8c-14.5 20.7-45.6 27.4-60.6 29.2-15.1 1.8-36.8.5-38.7 7.5-1.6 6.1 19.8 6 37.4 5.1 20.9-1 54.2-6.4 73.1-23.1 30.2-26.7 33.4-61.5 33.6-63.1"/>
      <path class="st2" d="M3074.1 1744.8c9.9-3.3 19.1-7.8 26.4-14 6.9-5.9 12.4-12.2 16.8-18.4 1.8-2.5 4.9-3.7 7.9-3.1 5.6 1.2 15.1 2.7 24.4 2.3M3105.2 1682.6c-2.8 13.3-12.5 26.4-18.9 32.2-4.6 4.1-9.5 7.6-14.5 10.6M3178.5 1709.5s64.8 0 141.8-58.7c35.5-27.1 28-48.5 21.7-57.3-5.3-7.4-72.7-59.3-94.3-93.5-11.9-18.8-18.3-43.8-26-42.9-8.5 1 1.2 24.5 8 40 6.9 15.7 22.9 51.3 42.3 77.2 17.3 23 43.3 31 43.3 31s-56.9 8.1-75 20.5c-6.6 4.5-11.9 9.6-13.7 16.9"/>
      <path class="st2" d="M3195.8 1653.7c0 1.4.4-20.7 19.6-34.5 19-13.7 75-27 75-27M3345.9 1601.1c-.1-.3 5.7-8.4 1.5-25.8-5.3-21.4-17.1-69-17.3-87.3-.3-21.8 12.7-52 6.7-54.7-7.5-3.3-14.1 19.3-19 39-5.7 23-6.4 54.7-5.4 69.3 1.1 17.4 2.2 27.2 2.2 27.2M3052.6 1777.5l-69.3 8.3c-5.5.7-10.5-3.3-11.2-8.8l-6.6-55.2c-.7-5.5 3.3-10.5 8.8-11.2l84.3-10.1c5.5-.7 10.5 3.3 11.2 8.8l6.6 55.2"/>
      <path class="st2" d="M3005.1 1849.7l-42.1 4.6c-2.7.3-5.2-1.7-5.5-4.4l-8.6-79c-.3-2.7 1.7-5.2 4.4-5.5l42.1-4.6c2.7-.3 5.2 1.7 5.5 4.4l8.6 79c.3 2.7-1.6 5.2-4.4 5.5zM2975.5 1842.7l14-1.5M3467.2 1311.2l-12.8-5.6c-2-.9-3-3.2-2.1-5.3l5.6-12.8c.9-2 3.2-3 5.3-2.1l12.8 5.6c2 .9 3 3.2 2.1 5.3l-5.6 12.8c-.9 2-3.3 2.9-5.3 2.1zM3450.1 1370.3l-12.1-7c-1.9-1.1-2.6-3.6-1.5-5.5l7-12.1c1.1-1.9 3.6-2.6 5.5-1.5l12.1 7c1.9 1.1 2.6 3.6 1.5 5.5l-7 12.1c-1.1 2-3.6 2.6-5.5 1.5zM3407.3 1413l-11.5-7.9c-1.8-1.3-2.3-3.7-1-5.6l7.9-11.5c1.3-1.8 3.7-2.3 5.6-1l11.5 7.9c1.8 1.3 2.3 3.7 1 5.6l-7.9 11.5c-1.3 1.8-3.8 2.2-5.6 1zM3395.1 1454.1l-9 10.7c-1.4 1.7-4 1.9-5.6.5l-10.7-9c-1.7-1.4-1.9-4-.5-5.6l9-10.7c1.4-1.7 4-1.9 5.6-.5l10.7 9c1.7 1.4 1.9 3.9.5 5.6zM3029 1706.1s-2.5 19-21.8 21.8M3007.2 1727.9c-43.7 8.4-88.9 12.7-135 12.7-23 0-45.7-1.1-68.2-3.2M2780.1 1737.5l16.8 11.7c1.8 1.3 4.3.1 4.5-2.1l1.7-20.4c.2-2.2-2.1-3.7-4-2.8l-18.5 8.7c-2 .9-2.3 3.6-.5 4.9zM2839.6 1795l17.7 10.2c1.9 1.1 4.3-.3 4.3-2.5v-20.4c0-2.2-2.4-3.6-4.3-2.5l-17.7 10.2c-1.8 1.2-1.8 3.9 0 5zM2864.6 1667.1l-114.8-9.9a9.8 9.8 0 0 1-8.9-10.5l1.2-13.4a9.8 9.8 0 0 1 10.5-8.9l114.8 9.9c5.4.5 9.3 5.2 8.9 10.5l-1.2 13.4c-.5 5.4-5.2 9.4-10.5 8.9zM2204.2 1431.8s-3.6 3.5-1.9 6.3c1.8 2.7 12.3 2 14.7 6.9 2.6 5.4-2.8 9.8-10.4 7.5-7.1-2.2-24-16.5-20.2-28.1 3.8-11.6 21.7-10.5 27.1-8.6 0 0 1.8-3.3 5.2-4.7 5.1-2.2 12 1.7 10.6 7s-6.7 5.6-6.7 5.6 11.5 10.2 10.2 19.5c-1.3 9.3-12.7 15.7-15.1 26.8-2.5 11.8 6.1 22.8 15.5 22.4s15.4-8.5 13.6-19.1c-1.8-10.6 1.3-14.7 9.2-15.9 8-1.3 19.4-3.6 20.8-15.6 1.9-16.3-23.1-12.4-15.5-30.6 5.8-13.7 51.1 1.3 63.1-19.6 11.3-19.5-22-41.4 11.8-62.5 3.3-2 3.6-6.7 1.7-10-8.9-15.4-32.6-58.1-52.4-108.3M2100.3 1536.2l-35-60.6c-2.3-3.9-.9-9 3-11.3l39.7-22.9c3.9-2.3 9-.9 11.3 3l35 60.6c2.3 3.9.9 9-3 11.3l-39.7 22.9c-4 2.3-9 1-11.3-3z"/>
      <path class="st2" d="M2200.4 1414.8s3.5-16.5-6.2-21.1c-8.4-4-12.4-11.7-8.4-18.1 5.6-8.9 24-11.9 34.9 3.3 7.5 10.5-2.4 18.9 1.5 31.5"/>
      <path class="st2" d="M2068 1480.4c-1.3 4.5-2.9 7.7-5.2 8.2-7.2 1.5-5.5-25.4-1.3-43.9 4.6-20.4 11.3-52.5 32.5-70.5 30.8-26.1 63.3-8.8 66.9-25.4 2.3-11-13.5-42-13.5-42s5.5-4.6 18.3-11.5c20.1-10.9 38.2-10.9 38.2-10.9s24.2 58.8 30.1 68.6c4.4 7.2 26.1 22.3 40.2-3.4 10.9-20 7.1-47.4 3.4-60.5-3.7-13.2-12.5-32.4-7-36 4.9-3.2 10.3 13.4 15.3 29.8 5.5 18 14 45 4.7 68.2-19.2 47.7-68.3 42.8-68.6 46.8"/>
      <path class="st2" d="M2194.2 1393.7c-23.5 2-49.6-23.8-83-6.2-22.4 11.7-33 41.8-36.6 56.5-1.3 5.1-2.2 11.7-3.2 18.3M2203.9 1284.3s-6.2-33.1-44.9-39.4c-38.7-6.3-92.3 14.1-110.7 14.4-16 .3-38.7-13.8-71.3-5.9-32.7 7.9-67.9 22.8-85 32.6-14.3 8.2-19.7 12.9-16.8 16.8 3.7 5 30.5-11.5 57.2-18.5 23.1-6.1 74.5-.1 106 5.7 44.7 8.2 114.8-8.1 114.8-8.1M2147.4 1306.7s-17.7-7.6-31.7-17.5"/>
      <path class="st2" d="M2081.2 1253s-28.2-37.1-16.8-50.4c11.3-13.3 94.9-28.2 108.3-44.3 14.8-17.7 17.1-36.1 23.9-35.9 9.7.3-3.2 33-14.5 47-9 11.2-43.1 48.2-85.7 47 0 0 29.2 16.8 42.5 27.3"/>
      <path class="st2" d="M2201.8 1205s-2.3-7.2-5-19.7c-1.8-8.2 3.1-16.5 11.2-18.8l4.3-1.2c7.9-2.3 12.9-10.2 11.3-18.3-7.3-39.3-11.1-79.9-11.1-121.3 0-79 13.9-154.7 39.3-224.9 2.8-7.7-.7-16.2-8-19.8l-5.1-2.5c-7.5-3.7-10.9-12.6-7.8-20.4 31.7-78.6 78.9-148.3 134.3-207.4"/>
      <path class="st2" d="M2381.7 924.8s-4.6-9.3-23.7-16.4c-25.7-9.7-75.4 10.4-88.7 17.5-13.5 7.2-36.4 24-42.3 19.7s17-17.9 33.6-27.3c18.3-10.3 43.4-26.7 83.1-30.5 49.4-4.8 84.5 21.3 95.2 35.6 7.7 10.3 21.8 17.3 22.4 17"/>
      <path class="st2" d="M2446.6 953.9s-7.8-8.4-11.5-7.9-12.2 3.1-15.4-5.7c-3.9-10.7 9.7-27.3 24.9-28 3.5-.1 6.7 1.8 8.1 5.1 2.3 5.3 8.5 4.7 10.8 3 5.4-3.9 8.4-17 18.3-17 7.2 0 8.8 10 14.3 11.3 7.2 1.8 13.5-11.2 22.8-4 7.3 5.5 3.1 12.2.5 16.8-6.8 12 4.9 16.7 6.5 25.6 3.5 20.6-23.2 36.3-35.4 23.4-10.6-11.2 4.9-31-2.4-36.4-7.2-5.3-14.8.7-13.5-1.6 1.3-2.3 1.7-9.5-5.2-8.1-6.9 1.4-4.3 9.3-4.3 9.3-4.8.4-19.2 5.8-18 16.1 1.1 10.3 19.3 15.6 25.6 14.8 6.7-.8 9.4-6.2 5.5-9.5-3.6-3-11.6 1.2-13.9-.3s-.7-5.5-.7-5.5M2365.4 913c-1.6-.6-30.9 23.3-42.7 45.1-9.3 17.2-10 45.4 8.3 67.6 18.1 21.8 54.6 33.2 68.7 36.4 3.5.8 6 3.8 6.2 7.4.7 11.9 3.3 38.5 13.4 58.9 13.3 27 18.2 34.1 25.3 50.1 7.2 16 16.1 47.7 26.7 48.3 10.6.6-2.9-24.4-2.9-24.4"/>
      <path class="st2" d="M2436.7 946.2c7.4 12.8 5.3 34 8.5 47 5.8 23.7 34.7 40.4 48.4 46.8 13.8 6.5 34.3 12 34.4 19.3s-17.8-.2-35.2-7.8c-19.2-8.4-50.4-19.6-64-43.9-5.8-10.3-8.3-17.8-9-28-.3-3.7-3.9-5.5-7.6-4.8-29.8 5.7-38.3 15.1-51.8 16.2-30.5 2.7-42.6-19.4-42.6-19.4M2390.6 980.5s24.6 9.4 35.3 21.6"/>
      <path class="st2" d="M2447.8 1028.4s8.4 12.3 4.4 27.3c-3.3 12.5-17.1 25.4-17.1 25.4M2411.2 1108.2s-22.7 28.5-31.5 43c-9.2 15.3-16.8 43.7-24 40.9-7.2-2.9 5.2-34.9 13.5-47.9s16.5-60.1 36.7-74.7M2497.2 1144.4l-10.6-45.4c-.7-3 1.2-5.9 4.1-6.6l29.8-6.9c3-.7 5.9 1.2 6.6 4.1l10.6 45.4c.7 3-1.2 5.9-4.1 6.6l-29.8 6.9c-3 .7-5.9-1.2-6.6-4.1z"/>
      <ellipse transform="rotate(-3 2872.102 1025.627) scale(.99997)" class="st6" cx="2872.2" cy="1025.7" rx="1146.4" ry="1146.4"/>
      <path class="st6" d="M245.1 1057.4c-1.9-168.7 12.5-336.9 42.6-502.2M300.1 1563.1c-11.9-57-21.8-114.2-29.8-171.5M349.1 1759.7c-6.6-22.7-12.9-45.6-18.9-68.4M396 147.8c177.7-502.6 509.5-955.9 981.4-1282.4 1193.1-825.6 2829.5-527.6 3655 665.4s527.6 2829.5-665.4 3655-2829.5 527.6-3655-665.4c-139.8-202.1-247.5-416.9-323.9-638.4M338.6 331.1c6-21.8 12.2-43.5 18.7-65.2"/>
      <path d="M2692.8 361.5c36.5-10.8 74.4-18.6 113.2-23.2" fill="none" stroke="#008787" stroke-width="61" stroke-linejoin="round" stroke-miterlimit="10" stroke-dasharray="4,20"/>
      <path class="st8" d="M2896.6 763.5c56.8 4.8 109.1 26.6 151.6 60.4M2690.6 824c43-35 96.6-57.8 155.7-62.6 2.7-.2 5.4-.4 8.1-.5M2810.5 1348.1c-57.8-8.7-99.9-26-144-61.1"/>
      <path class="st9" d="M2656.4 1054.7c-.5-3.9-.9-7.8-1.3-11.8-3.1-38.5 4.1-76.8 19.2-109.6M2658.6 766.2c34-28.9 73.9-51.2 117.8-64.9M2968.9 705.3c39.5 11.5 72.7 27.5 104.9 51.7"/>
      <path class="st2" d="M2199.7 828.5c-4.6 16.4-8.4 33-11.5 49.9-1.6 8.7-9.8 14.5-18.6 13l-167.9-29.8c-8.5-1.5-14.3-9.5-13-18 1.6-10.8 4.4-26.5 9.6-44.7 5.3-18.8 12.3-36.1 17.5-47.5 3.6-8 12.9-11.6 20.9-8.2l153.9 66.4c7.4 3.1 11.3 11.2 9.1 18.9zM2872.5-253.6c632.2 0 1156.9 459.1 1260.2 1061.9.8 4.5 3.5 8.4 7.4 10.7l78.4 45.3c4.2 2.4 7 6.7 7.6 11.6 5.4 49.2 8.1 99.2 8.1 149.8 0 121.3-14.4 233.5-44.1 345.1-1.4 5.4-5.8 9.6-11.3 10.9l-75.5 18c-5.3 1.3-9.5 5.2-11.1 10.4-17.9 56.7-39.6 111.8-64.8 164.8-2.3 4.8-2 10.3.8 14.8l42.3 67.3c2.9 4.7 3.2 10.6.5 15.4-229.1 423.8-676.2 712.3-1191 715.3-4.4 0-8 3.6-8 8v14.3c0 4.4 3.6 8 8 8 532.2-3 993.6-304.5 1225.3-745.6 2.5-4.8 2.3-10.6-.6-15.3l-79.3-126.1c-2.6-4.2-3.1-9.3-1.2-13.9l28.5-70.6c1.8-4.6 5.8-8 10.6-9.2l140.2-34.3c5.4-1.3 9.7-5.5 11.2-10.9 31-115.4 49.7-241.6 49.7-366.5 0-59.8-3.1-113.3-10.3-170.6-.6-4.6-3.3-8.7-7.3-11.2l-79-47.9c-3.7-2.3-6.3-6-7.1-10.3C4048 176.5 3514.3-285.2 2872.5-285.2"/>
      <path class="st2" d="M2993-279.7c-533.5-46.7-1026.1 214.1-1296.7 635.4-2.9 4.6-3.2 10.4-.7 15.3l68.1 132.5c2.2 4.4 2.3 9.6 0 14l-34.6 67.8c-2.2 4.4-6.5 7.4-11.3 8.2l-142.7 22c-5.5.8-10.1 4.6-12.1 9.9-40.9 112.3-70.6 236.3-81.4 360.7-5.2 59.5-6.8 113.1-4.6 170.9.2 4.7 2.5 9 6.3 11.7l74.6 54.6c3.5 2.6 5.8 6.6 6.2 10.9 59 614.1 547 1118.5 1182.4 1177.9 4.4.4 8.3-2.9 8.7-7.3l1.4-15.5c.4-4.4-2.9-8.2-7.2-8.7-626-58.5-1105.3-559.6-1155.4-1166.5-.4-4.6-2.7-8.7-6.5-11.3l-74.1-51.9c-4-2.8-6.4-7.3-6.5-12.2-1.1-49.5.5-99.5 4.9-150 10.6-120.8 34.7-231.3 74-340 1.9-5.3 6.6-9.1 12.2-9.9l76.8-11.3c5.4-.8 9.9-4.4 11.9-9.4 22.7-55 49.2-107.9 78.9-158.5 2.7-4.5 2.9-10.1.5-14.8l-36.3-70.8c-2.5-4.9-2.2-10.8.8-15.4 266.4-404.2 743.1-652 1259.3-606.9"/>
      <ellipse transform="rotate(-56.702 2009.408 1091.911)" class="st2" cx="2009.4" cy="1091.9" rx="7.5" ry="7.5"/>
      <ellipse transform="rotate(-56.702 2008.949 1052.71)" class="st2" cx="2008.9" cy="1052.7" rx="7.5" ry="7.5"/>
      <ellipse transform="rotate(-56.702 2008.436 1014.878)" class="st2" cx="2008.4" cy="1014.8" rx="7.5" ry="7.5"/>
      <ellipse transform="rotate(-56.702 2010.362 976.541)" class="st2" cx="2010.3" cy="976.5" rx="7.5" ry="7.5"/>
      <path class="st2" d="M2872.2-1515c1403.2 0 2540.7 1137.5 2540.7 2540.7S4275.4 3566.4 2872.2 3566.4 331.5 2428.9 331.5 1025.7c0-160.6 14.9-317.8 43.4-470.1"/>
      <path class="st2" d="M396 1025.7c0-1367.6 1108.6-2476.2 2476.2-2476.2S5348.4-341.9 5348.4 1025.7 4239.7 3501.9 2872.2 3501.9c-1144 0-2106.7-775.7-2391-1829.9"/>
      <path class="st2" d="M546.3 469.3c250.8-1052.1 1197-1834.5 2325.9-1834.5 1320.5 0 2391 1070.5 2391 2391s-1070.5 2391-2391 2391M536.2 1537.7c-36-165-55-336.3-55-512.1 0-75.8 3.5-150.9 10.4-224.9"/>
      <path class="st2" d="M2872.2-1287c1277.3 0 2312.7 1035.4 2312.7 2312.7S4149.5 3338.4 2872.2 3338.4c-1089.7 0-2003.4-753.7-2248.3-1768.3-42.1-174.6-64.5-356.9-64.5-544.5"/>
      <circle class="st2" cx="559.5" cy="1000.4" r="23.3"/>
      <circle class="st2" cx="687" cy="891.6" r="12.5"/>
      <circle class="st2" cx="687" cy="1104.4" r="12.5"/>
      <path class="st2" d="M365.2 552.5l20 4c2.1.4 4-1.6 3.3-3.7l-6.6-19.3c-.7-2.1-3.4-2.6-4.8-1l-13.5 15.4c-1.4 1.6-.5 4.2 1.6 4.6z"/>
      <g>
        <path class="st2" d="M2715.5 616.2l13.5-5.9-5.1-11.5M2714 605.5l19.3-8.5M2695.4 570.5l13.5-5.9-5-11.6M2694 559.7l19.2-8.4M2723 573.6l3.8 8.6c.4 1 0 2.2-1 2.6l-18.3 8c-1 .4-2.2 0-2.6-1l-3.8-8.6c-.4-1 0-2.2 1-2.6l18.3-8c1-.4 2.2 0 2.6 1z"/>
      </g>
    </g>
    <defs>
      <filter id="Adobe_OpacityMaskFilter" filterUnits="userSpaceOnUse" x="214.5" y="-1632" width="5315.5" height="5315.5">
        <feColorMatrix values="1 0 0 0 0 0 1 0 0 0 0 0 1 0 0 0 0 0 1 0"/>
      </filter>
    </defs>
    <mask maskUnits="userSpaceOnUse" x="214.5" y="-1632" width="5315.5" height="5315.5" id="SVGID_3_">
      <g filter="url(#Adobe_OpacityMaskFilter)">
        <linearGradient id="SVGID_4_" gradientUnits="userSpaceOnUse" x1="871.773" y1="1099.016" x2="3878.94" y2="1099.016" gradientTransform="matrix(.8195 -1.0965 1.1806 .8823 -940.345 2967.845)">
          <stop offset=".412" stop-color="#fff" stop-opacity="0"/>
          <stop offset=".784" stop-color="#fff"/>
        </linearGradient>
        <path d="M3492.2-347C4520 468.5 4821 1881.8 4164.6 2809.5S2143 3828.3 1115.2 3012.7-213.5 784 442.9-143.8 2464.5-1162.5 3492.2-347z" clip-path="url(#SVGID_2_)" fill="url(#SVGID_4_)"/>
      </g>
    </mask>
    <g clip-path="url(#SVGID_2_)" mask="url(#SVGID_3_)">
      <path class="st13" d="M3134.6 989.9c1.1 8.3 1.9 16.6 2.3 25.1M3124.8 946.5c2 6.2 3.7 12.6 5.2 19M3107.7 904.6c3.1 6 5.9 12.1 8.5 18.4M3084.3 867c3.8 5.2 7.5 10.5 11 15.9M2868.4 1035.4v10.4c0 7.3 7.5 12.1 14.1 9.1 12.3-5.4 20.9-17.7 20.9-32 0-20.4-17.4-36.7-38.2-34.9-19 1.7-32.9 19.3-31.7 38.3.8 12.7 7.2 22.7 21.3 28.8 11.8 5.1 12.2 12.9 8.9 23-6.6 20.2-28.3 57.6 17.2 55.2 31.2-1.7 41.8-26.7 39.3-49.4-1.2-11.1-5-21.1-5.4-34.8-.7-23.1 16.8-33.9 27.9-41.8 23.4-16.8 26-30.3 22.8-45.4-3.3-15.4-23.4-30.6-43.4-26.4-9.2 1.9-17.6 6.7-26.3 14.9-12.3 11.4-21.9 19.1-43.6 20.8-10.9.9-21-4.1-30.7-8.9-7.4-3.7-19.1-10.2-27.3-5.3-12.4 7.4-1.2 26 3.2 34.7 4.5 8.9 8.7 17.2 9.2 25.5.9 13.9-6.1 25.5-12.2 35.7-2.6 4.4-5.1 8.5-6.7 12.3-2.4 5.8-1.4 12.5 2.8 17 5.2 5.6 13.9 6.9 24.7 3.4 11.2-3.6 19.9-5.1 27.5-5.1 8.2 0 15.3 1.7 23.3 4.5s15.4 7.9 22.5 12.9c6.2 4.3 12.6 9.2 20.1 11.5 7.5 2.4 15.5.5 21.3-3 5.6-3.4 10.1-8.9 11.3-15.4 1.5-7.8-.1-14.3-1.2-19-1.9-7.8-3.8-15.8-3.4-21.2.9-12.3 7.8-17.8 18.8-25.7 27.5-19.8 37.2-40.7 31.4-67.8-6.8-31.7-42.2-48.9-69.3-43.2-13.1 2.8-25.1 9.4-36.8 20.3-10.2 9.5-15.4 13.8-30.4 15-4.9.4-12.2-3.2-19.2-6.7-14.6-7.2-36.8-18.2-56 2.7-16.6 18-5.5 40 2.6 56.1 3.1 6.2 6.7 13.3 6.9 17.1.5 7-4.2 14.7-9.1 22.9-2.9 4.9-6 9.9-8.2 15.2-5.7 13.7-3 29.4 6.8 40.2 11.1 12.1 28.4 15.6 47.5 9.5 19.6-6.2 26.5-4.4 37-.7 5.2 1.8 11 5.9 17.3 10.2 10.4 7.2 20.7 15 36.2 15.7 14.8.7 28-3.3 45.1-19.6 4.7-4.4 11.8-5 17.1-1.4l80.6 54.5"/>
      <circle class="st13" cx="2930.7" cy="968.8" r="12.5"/>
      <path class="st13" d="M2939.9 960.4l127-95.7"/>
      <circle class="st13" cx="3076.7" cy="855.7" r="12.5"/>
      <circle class="st13" cx="3101.7" cy="893.7" r="12.5"/>
      <circle class="st13" cx="3120.7" cy="934.7" r="12.5"/>
      <circle class="st13" cx="3132.7" cy="977.7" r="12.5"/>
      <circle class="st13" cx="2868.2" cy="1021.7" r="12.5"/>
      <circle class="st13" cx="2711.2" cy="1053.7" r="12.5"/>
      <path class="st13" d="M2723.5 1051.4l132.8-25.7M2588.4 1077.5l110.3-21.3"/>
      <circle class="st13" cx="2576.4" cy="1081.1" r="12.5"/>
      <path class="st13" d="M2749.5 1102.6c11.4 18.1 26.6 33.5 44.8 45.1 3.5 2.3 4.7 6.9 2.7 10.6l-50.2 90.9c-2.2 4-7.2 5.4-11.1 3-39-23.5-71.4-56.9-93.9-96.6-2.3-4-.6-9.1 3.5-11.1l94-44.9c3.7-1.6 8.1-.4 10.2 3z"/>
      <path class="st13" d="M2835.5 862.1c36.7-6.4 62.4-27.9 62.4-55.4 0-23.6-19.3-29.2-25.8-29.2s-25.7 4.8-25.7 29.2c0 27.6 25.3 49 62.1 55.4 80.9 17.9 137.9 93.3 130.5 178.1-8 92.2-89.1 160.3-181.3 152.3-64.3-5.6-117-46.8-140.2-102.5-1.6-3.8 0-8.2 3.7-10.2 8-4.2 20.1-13.8 16.6-31.5-3.5-17.6-17.4-22.7-26.1-24.2-4-.7-7-4.3-6.7-8.4.1-1.5.2-3.1.3-4.6 6.4-74.6 60.8-133.5 130.2-149zM2872.2 794.7v22.9M2883.7 806.2h-23M2908 1353h-49.7c-4.4 0-8-3.6-8-8v-65.3c0-4.4 3.6-8 8-8h49.7c4.4 0 8 3.6 8 8v65.3c0 4.4-3.6 8-8 8z"/>
      <path class="st13" d="M2913.7 1350.1l-32.1-32.1c-3.1-3.1-3.1-8.2 0-11.3l32.1-32.1M2713.1 1175.3l-20.1 3.9c-2.1.4-3 3-1.6 4.7l13.4 15.4c1.4 1.7 4.1 1.1 4.8-.9l6.7-19.3c.8-2.2-1-4.2-3.2-3.8z"/>
      <circle class="st13" cx="3136.7" cy="1180.7" r="12.5"/>
      <circle class="st13" cx="3155.1" cy="1126.4" r="12.5"/>
      <circle class="st13" cx="3207.1" cy="1152.8" r="12.5"/>
      <circle class="st13" cx="3133.6" cy="1256.3" r="12.5"/>
      <circle class="st13" cx="3042.4" cy="1289.9" r="12.5"/>
      <circle class="st13" cx="3042.4" cy="1289.9" r="23.3"/>
      <circle class="st13" cx="3065.7" cy="1173.7" r="12.5"/>
      <circle class="st13" cx="3065.7" cy="1173.7" r="23.3"/>
      <circle class="st13" cx="2623.2" cy="855.7" r="12.5"/>
      <circle class="st13" cx="2565.7" cy="818.8" r="12.5"/>
      <path class="st13" d="M2576.1 825.6l37 22.9M3042.4 1277.4l20.6-91.5M3074.9 1165.3l67.7-37M3167.6 1130.3l28.5 16.5M3197.9 1161.2l-48.7 19.5M3077.4 1178.2l46.8 2.5M3054.9 1289.9l67.4-28.2M3136.7 1193.2l-1.6 50.7M3142.6 1169.7l9.8-31.1M3030.3 1412.4l-31.9 11.1c-2.1.7-4.4-.4-5.1-2.5l-20.9-59.9c-.7-2.1.4-4.4 2.5-5.1l31.9-11.1c2.1-.7 4.4.4 5.1 2.5l20.9 59.9c.7 2.1-.4 4.4-2.5 5.1zM3006 1412.3l10.6-3.7M2872.2 777.4v-30.6M2869.5 722.7l-10.9 18.9c-1.2 2 .3 4.6 2.6 4.6h21.8c2.3 0 3.8-2.5 2.6-4.6l-10.9-18.9c-1.1-2.1-4-2.1-5.2 0zM3308.8 1006.3l9.7-19.6c1-2.1-.6-4.5-2.9-4.4l-21.8 1.3c-2.3.1-3.6 2.8-2.3 4.7l12.1 18.2c1.3 2.1 4.2 1.9 5.2-.2zM3195.8 1285.4l-20.7 24.4c-5.2 6.1-14.3 6.9-20.4 1.7-6.1-5.2-6.9-14.3-1.7-20.4l20.7-24.4c5.2-6.1 14.3-6.9 20.4-1.7 6.1 5.2 6.9 14.3 1.7 20.4zM3144.1 1263.1l19.4 15.7"/>
      <circle class="st13" cx="3205.3" cy="904.6" r="12.5"/>
      <path class="st13" d="M3145.5 1340l-11.5 10c-1.2 1.1-3.1.9-4.2-.3l-27.3-31.4c-1.1-1.2-.9-3.1.3-4.2l11.5-10c1.2-1.1 3.1-.9 4.2.3l27.3 31.4c1.1 1.3.9 3.1-.3 4.2zM3115.3 1362.3l-12.4 8.8c-1.3.9-3.2.6-4.1-.7l-24-34c-.9-1.3-.6-3.2.7-4.1l12.4-8.8c1.3-.9 3.2-.6 4.1.7l24 34c1 1.3.7 3.2-.7 4.1zM3181.3 1077.9s.5 4.3-2.1 5.2-9.2-5.3-13.5-3.3c-4.7 2.2-3.4 8 2.9 10.6 5.9 2.4 24.8 2 28.5-7.7 3.8-9.7-8.7-18.6-13.3-20.3M3107.8 799c30.6 34.2 55.5 73.6 73 116.8 5.6 13.8 21.1 20.8 35.1 15.6 14.3-5.3 21.5-21.2 16.2-35.5-18.6-50.4-47-96-83-134.5-10.4-11.1-27.8-11.8-38.9-1.5l-.6.6c-10.9 10.2-11.8 27.3-1.8 38.5zM2560.7 933l4.1-14.6c.4-1.6 2.1-2.5 3.7-2.1l40 11.3c1.6.4 2.5 2.1 2.1 3.7l-4.1 14.6c-.4 1.6-2.1 2.5-3.7 2.1l-40-11.3c-1.6-.5-2.5-2.1-2.1-3.7zM2759.4 623.2L2698 650c-3.2 1.4-7-.1-8.4-3.3l-38.4-88.1c-1.4-3.2.1-7 3.3-8.4l61.3-26.8c3.2-1.4 7 .1 8.4 3.3l38.4 88.1c1.5 3.3 0 7-3.2 8.4zM2976 1549.2l-52.6 7.1c-3.4.5-6.6-2-7.1-5.4l-13.3-98.7c-.5-3.4 2-6.6 5.4-7.1l52.6-7.1c3.4-.5 6.6 2 7.1 5.4l13.3 98.7c.4 3.5-2 6.7-5.4 7.1zM2938.7 1541.4l17.5-2.4"/>
      <ellipse transform="rotate(-45.001 3147.81 1426.663)" class="st13" cx="3147.8" cy="1426.6" rx="6" ry="6"/>
      <ellipse transform="rotate(-45.001 3163.696 1414.423)" class="st13" cx="3163.7" cy="1414.4" rx="6" ry="6"/>
      <ellipse transform="rotate(-45.001 3179.388 1402.01)" class="st13" cx="3179.4" cy="1402" rx="6" ry="6"/>
      <path class="st13" d="M3102.2 1517.5l-17.9 7.8c-1.9.8-4.2 0-5-2l-21.5-49c-.8-1.9 0-4.2 2-5l17.9-7.8c1.9-.8 4.2 0 5 2l21.5 49c.8 1.9-.1 4.2-2 5z"/>
      <path class="st14" d="M2759.4 607.4c1.9-.5 3.9-1 5.8-1.5"/>
      <path d="M2777 603c30.6-6.9 62.5-10.5 95.2-10.5 220.1 0 401.9 164.2 429.5 376.8" fill="none" stroke="#54ffbd" stroke-width="4" stroke-linecap="round" stroke-linejoin="round" stroke-dasharray="12.0995,12.0995"/>
      <path class="st14" d="M3302.4 975.4l.6 6"/>
      <path class="st13" d="M2850 662.2l14.2-.2M3318.4 1070.4c-87.9-52.6-114.5-11-136.6-12.9"/>
      <path class="st13" d="M3209.6 916.6c7.4 22.8 12.5 46.6 15.1 71.2.9 8.7 8.7 15 17.4 14.2l85.7-8.2c8.5-.8 16.1 5.1 17.4 13.6 2.2 15-20.5 66.1-42.1 97.2M2571.9 807.9c68.3-93.2 179-154.1 302.7-154.1h1.5c4.6 0 8.3-3.7 8.2-8.3l-.6-59.9c0-2.8-2.3-5.1-5.1-5l-42.9.4c-2.8 0-5.1 2.3-5 5.1l.7 80.5c0 2.8 2.3 5.1 5.1 5l35.7-.4c148.7 0 276 91.5 328.6 221.3M3204.3 1165.3c-5.6 17.1-15.8 33.7-23.4 44.7-5.1 7.5-3 17.7 4.6 22.6l7.4 4.7c7.8 5 9.8 15.5 4.4 22.9-71.3 98.7-186.5 163.7-317 166.3-4.5.1-8.2-3.5-8.2-8v-13.1c0-4.4-3.5-7.9-7.8-8-200.9-4.2-362.7-167.7-364-369.4-.5-73.3 20.7-141.8 57.5-199.7"/>
      <circle class="st13" cx="2857.8" cy="624.7" r="12.5"/>
      <path class="st13" d="M2741.6 566.7c41.5-11.8 85.3-18.1 130.5-18.1 222.4 0 409.3 152.2 462.1 358.2 2.2 8.5 10.7 13.7 19.2 11.6l1096.1-260.3"/>
      <circle class="st13" cx="3207.3" cy="686.1" r="12.5"/>
      <circle class="st13" cx="2683.9" cy="1422.9" r="12.5"/>
      <circle class="st13" cx="2796.8" cy="1430.6" r="12.5"/>
      <path class="st13" d="M2555.8 1507.9s.2 8.4-4.6 15.8c-4.8 7.3-28.5 19-35.7 56.7-7.2 37.7 1.8 80.7 18.9 99 36.5 39.2 101.1-29.1 101.1-29.1M2950.1 1570.6l-7.8 18.9c-.8 2 .8 4.2 3 3.9l20.2-2.7c2.2-.3 3.2-2.8 1.9-4.6L2955 1570c-1.3-1.7-4-1.4-4.9.6z"/>
      <ellipse transform="rotate(-45.001 2809.492 1507.972)" class="st13" cx="2809.5" cy="1507.9" rx="7.5" ry="7.5"/>
      <ellipse transform="rotate(-45.001 2836.474 1510.26)" class="st13" cx="2836.5" cy="1510.2" rx="7.5" ry="7.5"/>
      <ellipse transform="rotate(-45.001 2863.456 1511.214)" class="st13" cx="2863.5" cy="1511.2" rx="7.5" ry="7.5"/>
      <ellipse transform="rotate(-45.001 2890.438 1511.215)" class="st13" cx="2890.4" cy="1511.2" rx="7.5" ry="7.5"/>
      <path class="st13" d="M2690.7 1626.6s12.5.8 16.2 15c3.7 14.3-15.1 74.3-21.8 119.5-4 27.1-3.1 54.2-10.5 54.3-7.7.1-4.2-39-3.3-56.8 1.2-24.1-6.1-69.6-.8-89.9M3194.9 1071.2c-.1-.3 5.1-3.6 9.9-4.4 3.4-.6 8.4 3.1 11.7-.1 6.6-6.3-5.9-17.8-5.9-17.8"/>
      <circle class="st13" cx="2357.6" cy="1226.4" r="12.5"/>
      <path class="st13" d="M2435.4 1268.1l1 20.4c.1 2.2 2.5 3.4 4.4 2.3l17.2-11c1.8-1.2 1.7-3.9-.2-4.9l-18.2-9.4c-2-1.1-4.3.4-4.2 2.6zM3318.4 1070.4s31.5 12.5 35.3 37.6c2.9 19.3-10.7 37.3-26.5 52.9-17.5 17.2-37.2 38.8-37.2 38.8s44.6 8.3 69.4 18.8c19.2 8.2 32.2 15.5 42.8 37.7 4.4 9.3 13.4 31 8 32-9.7 1.7-25-40.9-34.8-44.5-12.6-4.6-113-2.1-120.4-25.2-7.3-23.2 30.3-88.2 48-114"/>
      <path class="st13" d="M3285.3 1234.1s71.9 37.3 79.4 44.7 25 36.8 32.2 36.8c7.5 0-5.6-30.2-19.1-47.3-9.7-12.3-30.6-27.4-30.6-27.4M3313.9 1203s10.9-36.1 22.1-51.5M3209 1067.9c4.1 3.6 12.5 13.7 21.6 19.1 7.8 4.6 19.5 8 19.5 8M3273.4 1102.7l23.7 8.8"/>
      <path class="st13" d="M3236.3 1062.4s17.7 32.1 17.7 55-18.8 45-29.6 53.6c-10.7 8.4-26.7 19.7-24.8 26.1 1.9 6.4 15.5-5 28.7-16.3 14.5-12.5 40-32.1 44-55.3 4.8-28.1-8-63-8.7-64.3"/>
      <ellipse transform="rotate(-2.098 2270.453 1264.328) scale(.99997)" class="st13" cx="2270.5" cy="1264.3" rx="20" ry="20"/>
      <ellipse transform="rotate(-2.098 2211.2 1222.645) scale(.99997)" class="st13" cx="2211.3" cy="1222.6" rx="20" ry="20"/>
      <ellipse transform="rotate(-89.01 2278.073 1192.064) scale(1.00005)" class="st13" cx="2278.1" cy="1192.1" rx="20" ry="20"/>
      <path class="st13" d="M2229.3 1214l30.8-13.2M2277.7 1212.1l-2.9 32.7M2226.6 1236.8l27.4 16.3M2576.3 1522c33.6-1 56.5-57.6 60.3-70.9 3.8-13.1 7.9-32.3 14.5-32.9s1.4 16.2-4 32.7c-6 18.2-5.4 41.8-29.3 69.6-11.4 13.3-19.1 18.1-28.1 21.7"/>
      <path class="st13" d="M2541.8 1532.9s32.9 16.9 68.9 5.7c24.1-7.5 40-35.2 46.2-48.9 6.3-13.9 11.6-34.4 18.9-34.6 7.3-.2 0 17.8-7.4 35.3-8.2 19.3-19.1 50.6-43.2 64.5-35 20.1-68.7 13.1-70.4 12.9M2575.9 1519.2s-2.9 17.5 1.7 22.9M2580.6 1620.4c0-16.6 9.1-52.6 9.1-52.6"/>
      <path class="st13" d="M2831.6 1364.7v-189.9c0-5.1 4.7-8.9 9.7-7.8 25.2 5.6 50.6 4.1 73.9-3.1 3.6-1.1 7.4.3 9.3 3.5l25 42.5c1.3 2.2.2 5.1-2.3 5.9-22.7 6.6-56.6 7.4-74.9 7.4-109.1 0-197.5-88.4-197.5-197.5 0-109.4 88.1-197.5 197.5-197.5 109.1 0 197.5 88.4 197.5 197.5 0 78.1-45.8 143.6-111.8 175.2-11.5 5.5-30.1 9.5-45.1 10.9-2.1.2-3.6 1.9-3.6 4l.2 20.8c0 4.4 3.6 8 8 8h17.8c4.4 0 8 3.6 8 8v73.4c0 4.4-3.6 8-8.1 8-14.1-.1-43-.3-57.1-.2-4.4 0-8.1-3.5-8.1-8v-59.2c0-4.4 3.6-8 8-8h42.8c4.4 0 8 3.6 8 8v102.6c0 4-2.9 7.4-6.9 7.9-16.2 2.3-32.8 3.4-49.6 3.4-47.8 0-93.4-9.5-135.1-26.6l-13.4-5.8c-4-1.8-8.6-.2-10.5 3.8l-15.3 32.3c-1 2.1-.1 4.5 2 5.5 15.6 7.5 23.6 25.6 17.9 42.4-5.7 16.7-22.9 26.3-39.7 22.8-2.5-.5-6.5 1.2-10.5 9.2"/>
      <path class="st13" d="M2645.6 424.3c-100.6 37.9-189.1 100.3-258.4 180-7.9 9.1-18.8 22.9-28.1 35-5.5 7.2-3.9 17.7 3.6 22.9l17.8 12.4c7.1 4.9 9 14.5 4.3 21.8L2371 718c-4.7 7.3-14.3 9.5-21.7 5.1l-42.5-25.5c-7.7-4.6-17.7-2-22.1 5.8-3 5.3-6.6 11.8-10.3 18.9-5.3 10.2-9.6 19.3-12.8 26.2-3.5 7.6-.5 16.6 6.8 20.6l169.8 94.3c8.4 4.6 18.9 1 22.5-7.9 14.4-34.7 33-67.2 55.3-96.9 5.1-6.8 4.1-16.3-2.4-21.8l-99.1-84.4c-6.7-5.7-7.5-15.8-1.8-22.5 11.1-13 22-24.8 34.4-36.8 5.6-5.4 14.5-5.5 20.1-.2 5.5 5.1 14 5.3 19.6.3 93.3-83.2 213.7-136.6 346.2-145.4 8.9-.6 16.5 6.2 17 15.1l2.2 39.7c.5 8.4 7.4 15 15.8 15.1l25 .3c8.5.1 15.6-6.4 16.2-14.9l2.6-38.8c.6-9 8.5-15.8 17.5-14.9 62.6 6.1 122.2 22.2 177.3 46.7 7 3.1 15.2.8 19.6-5.5l34.3-48.8c4.6-6.5 13.2-8.7 20.3-5.1 39.9 20.3 73.7 42.2 108.2 70.1 6.6 5.3 7.9 14.9 2.9 21.8l-33.5 46.6c-4.8 6.6-3.8 15.7 2.2 21.2 113.4 102.7 186 249.7 190.4 413.7.2 8.7-6.6 16.1-15.3 16.4l-43.4 1.8c-14 .6-25.8-10.3-26.3-24.3-.1-2.8-.2-5.5-.3-8.1-.5-13.6 9.9-25.2 23.5-26.1l18.8-1.3c13.7-.9 25.6 9.5 26.4 23.1.7 11.3 1 22.8 1 34.3 0 48.9-6.2 96.3-17.9 141.6-1.1 4.2-5.4 6.8-9.6 5.8l-.2-.1c-4.2-1-8.5 1.5-9.6 5.7-5.9 21.9-13.3 41.5-17.2 51.3-32.9 82-85.1 154.1-150.8 210.9-1.7 1.4-3.8 2.1-6 1.9l-23.1-2.3c-2-.2-3.9.3-5.5 1.5l-30.8 22.7c-3.5 2.6-8.4 1.9-11.1-1.5l-28.9-37.1c-2.7-3.5-2.1-8.5 1.4-11.2l62.2-49c3.4-2.7 8.3-2.2 11.1 1.1l30.5 36.4c2.8 3.3 2.4 8.2-.8 11.1l-3.6 3.2c-3.3 3-3.6 8.1-.5 11.4l29.7 31.7c3.2 3.4 8.6 3.4 11.7 0l46.4-50.2c3.1-3.4 2.8-8.7-.8-11.7L3186 1297"/>
      <path class="st13" d="M3266.1 564.5c131.4 111 211.1 275.7 211.1 461.2 0 68-11.2 133.4-31.9 194.5-2.7 7.9 1.2 16.5 8.9 19.8l62.2 26.6c8 3.4 11.8 12.6 8.6 20.7l-13.6 33.9c-3.3 8.3-12.8 12.2-21 8.8l-84.4-35.2c-8.3-3.5-12.1-13-8.5-21.2 25.6-57.4 45.1-127.2 51.3-190.9.3-3.2 3-5.6 6.2-5.6 3.7 0 6.6 3.2 6.3 6.8-.8 9.3-1.9 19.3-3.1 28.5-.6 4.2 2.2 8.1 6.3 8.9l84.8 17.4c4.5.9 8.8-2.1 9.5-6.6 5.3-34.6 8.1-70.1 8.1-106.3 0-108.4-26.4-227.1-78.6-324.5-4.2-7.8-14-10.7-21.8-6.5l-92.7 50.6c-7.4 4.1-16.8 1.6-21.2-5.6-16.6-26.6-35.1-51.7-55.4-75.3-5.4-6.3-5.1-15.8.8-21.7l75.1-75.8c6.1-6.2 6.2-16.1.2-22.4-62.5-65.1-137.5-118-221.3-154.8-7.8-3.4-16.9-.2-20.7 7.4l-10.3 20.3c-3.7 7.3-12.3 10.6-19.9 7.7-53.5-20.4-110.4-33.8-169.6-39.2-8.7-.8-15.1-8.4-14.5-17l1.3-19.4c.6-8.8-6.1-16.5-14.9-17.1-10.5-.7-21.4-1.3-31-1.3-3.1 0-6.8 0-10.7-.1-8.9-.1-16.1 7.1-16.1 16l-.1 21.6c0 8.4-6.5 15.4-14.9 15.9-56 3.6-110.1 14.4-161.3 31.4"/>
      <path class="st13" d="M3114.4 557.7c-15.1-7.8-30.7-14.8-46.6-21.1-8.2-3.3-12.3-12.5-9-20.8l62.5-158.6c3.2-8 12.1-12.1 20.2-9.2 10.3 3.7 25.1 9.6 41.9 18.2 17.4 8.9 32.9 19.2 43.1 26.5 7.1 5.1 8.8 14.9 3.8 22.1l-95.5 137.7c-4.5 6.7-13.2 8.8-20.4 5.2zM3400.7 1010.2c.2 5.9.3 11.9.3 17.8 0 68.5-13.1 132.5-36.9 192.6"/>
      <circle class="st13" cx="3400.8" cy="997.7" r="12.5"/>
      <path class="st13" d="M3215.6 573.5l-67.3-46.2c-7.3-5-9.1-15-4.1-22.2l26.7-38.9c5-7.3 15-9.1 22.2-4.1l67.3 46.2c7.3 5 9.1 15 4.1 22.2l-26.7 38.9c-5 7.2-15 9.1-22.2 4.1zM3419.8 670.1l-37-52.8c-5-7.2-3.3-17.2 3.9-22.3l79.5-55.7c7.2-5 17.2-3.3 22.3 3.9l37 52.8c5 7.2 3.3 17.2-3.9 22.3l-79.5 55.7c-7.2 5.1-17.2 3.3-22.3-3.9z"/>
      <path class="st13" d="M3483.6 618.7l-11.9-17c-1.3-1.8-.8-4.3 1-5.6l17-11.9c1.8-1.3 4.3-.8 5.6 1l11.9 17c1.3 1.8.8 4.3-1 5.6l-17 11.9c-1.8 1.2-4.3.8-5.6-1zM3436.8 581.6l35.1 50.1M3419.8 593.4l35.1 50.2M3402.9 605.3l35.1 50.2M3328.1 435.4l8.8 18.4c.9 2 3.7 2.2 4.9.4l11.6-16.8c1.2-1.8.1-4.3-2.1-4.4l-20.4-1.6c-2.2-.2-3.8 2-2.8 4zM3220.1 524l-9.8 13.2c-1.6 2.2-4.7 2.6-6.8 1l-20.5-15.3M3186.2 513.9l11.5-15.4c1.6-2.2 4.7-2.6 6.8-1l21.1 15.7"/>
      <path class="st13" d="M3197.2 512.3l-11 1.6-1.6-11M3210.6 523.6l11-1.6 1.6 11"/>
      <ellipse transform="rotate(-45.001 3617.016 1146.954)" class="st13" cx="3617" cy="1146.9" rx="7.5" ry="7.5"/>
      <ellipse transform="rotate(-45.001 3609.515 1185.432)" class="st13" cx="3609.5" cy="1185.4" rx="7.5" ry="7.5"/>
      <ellipse transform="rotate(-45.001 3602.344 1222.581)" class="st13" cx="3602.3" cy="1222.5" rx="7.5" ry="7.5"/>
      <ellipse transform="rotate(-45.001 3592.682 1259.73)" class="st13" cx="3592.7" cy="1259.7" rx="7.5" ry="7.5"/>
      <path class="st13" d="M3042.2 440.5l13.4 15.4c1.4 1.7 4.1 1.1 4.8-.9l6.7-19.3c.7-2.1-1.1-4.1-3.2-3.7l-20.1 3.9c-2.1.4-3 2.9-1.6 4.6zM2888.2 370h-14c-2.2 0-4-1.8-4-4v-14c0-2.2 1.8-4 4-4h14c2.2 0 4 1.8 4 4v14c0 2.2-1.8 4-4 4zM2888.2 425.2h-14c-2.2 0-4-1.8-4-4v-14c0-2.2 1.8-4 4-4h14c2.2 0 4 1.8 4 4v14c0 2.2-1.8 4-4 4zM2888.2 480.3h-14c-2.2 0-4-1.8-4-4v-14c0-2.2 1.8-4 4-4h14c2.2 0 4 1.8 4 4v14c0 2.2-1.8 4-4 4z"/>
      <circle class="st13" cx="2657" cy="419.3" r="12.5"/>
      <path class="st13" d="M2628.9 419.3c0-10.5 5.9-20.5 15.9-25.3 11.2-5.4 24.1-2.7 32.3 5.6M2660.5 558.3l11.9 27.9M2444.9 456.9l24.4 28.7c2.2 2.6 1.9 6.4-.7 8.6l-37.8 32.1c-2.6 2.2-6.4 1.9-8.6-.7l-24.4-28.7c-2.2-2.6-1.9-6.4.7-8.6l37.8-32.1c2.6-2.2 6.4-1.8 8.6.7z"/>
      <path class="st13" d="M2440.4 455.1l-2.8 34.3c-.3 3.3-3.2 5.8-6.5 5.6l-34.3-2.8M2358.8 542.1l13.2 15.6c1.4 1.7 4.1 1.2 4.8-.9l6.9-19.2c.7-2.1-1-4.1-3.2-3.8l-20.1 3.7c-2.1.4-3 3-1.6 4.6z"/>
      <circle class="st13" cx="2387.2" cy="757.4" r="6"/>
      <circle class="st13" cx="2408.2" cy="769.4" r="6"/>
      <circle class="st13" cx="2428.2" cy="781.4" r="6"/>
      <path class="st13" d="M2671.4 1418.1c-23.5-12-48.3-28.8-54.5-33.2-104.2-74.2-174.8-192.6-184.3-327.8-1.1-15.1-8.3-24-20.2-33.4-10.6-8.4-25.3-18.1-43.3-25.4"/>
      <path class="st13" d="M2272.3 1172.3c-10.7-45.6-17.7-97.7-17.7-146.6 0-92.6 20.4-180.5 56.9-259.3 2.2-4.8.3-10.5-4.3-13-7.6-4.2-10.6-13.6-6.6-21.4 7.6-14.8 15.5-28.7 24.4-43.1 4.7-7.7 14.9-9.9 22.5-4.9l118.9 78.8c7.2 4.7 9.3 14.3 4.8 21.7-7.6 12.6-14.6 25.5-21 38.8-4 8.2-14 11.4-22 7l-64.9-35.4c-7.9-4.3-10.7-14.2-6.3-22l19.3-34c2.2-3.9 7.2-5.2 11.1-2.9l58.6 35c3.7 2.2 5 6.9 2.9 10.7L2439 800c-2.1 3.9-7.1 5.3-10.9 3.2l-10.8-6c-.9-.5-2.1-.2-2.6.6l-3.6 5.4c-.9 1.3-2.9 1.1-3.5-.4l-6.1-15.1c-.2-.4-.5-.8-.9-1l-54.4-30.4c-7.7-4.3-10.5-14-6.2-21.7 11.2-20.3 23.4-39.8 36.8-58.6 5.1-7.2 15-8.9 22.2-3.8l19.3 13.6c6.9 4.9 16.4 3.5 21.7-3.1 52.2-64.8 121.3-120.6 198.1-156.9 8.2-3.9 18-.1 21.5 8.2l51.6 121.1c3.3 7.8 0 16.9-7.7 20.7-8.7 4.2-20.3 10.1-31.2 16.5-8.6 5.1-16.6 10.3-22.9 14.7-7.5 5.2-17.8 3-22.7-4.7L2529 546c-4.6-7.3-2.5-16.9 4.6-21.8 69.6-47.1 149.5-80 235.6-94.8 2-.3 4.1-.7 6.1-1 8.4-1.4 16.4 4.2 18.1 12.5l10.2 47.9c1.7 8 9.1 13.4 17.2 12.6 16.9-1.6 34-2.5 51.3-2.5 40.9 0 80.7 4.7 119 13.5 8.7 2 17.4-3.5 19.3-12.2l31.7-148.5c1.9-9 11-14.5 19.9-12.1 79.3 21.9 153.1 57.3 218.7 103.4 7.2 5 9 14.9 4 22.2l-87.2 127.2c-4.7 6.9-3.3 16.3 3.2 21.6 61.8 49.4 112.3 112.5 146.8 184.7 3.7 7.7 12.8 11.2 20.7 7.9l77.5-32.9c8.2-3.5 17.7.4 21.1 8.7 30.8 75.1 47.7 157.3 47.7 243.4 0 83.3-15.8 162.9-44.7 235.9-1.6 4 .3 8.6 4.3 10.3l17.1 7.3c4.1 1.7 5.9 6.4 4.2 10.5-2.9 6.8-7.3 17-10.9 24.4-2.8 5.8-5.3 10.9-7.3 14.8-1.9 3.9-6.6 5.5-10.5 3.7l-17.3-8c-3.8-1.8-8.4-.3-10.4 3.5-3 5.5-7.2 13.4-10.7 19.3-3.2 5.3-6.8 11.4-9.6 15.8-2.3 3.7-1.2 8.5 2.5 10.9l15.6 10.1c3.7 2.4 4.8 7.4 2.4 11.1-3.5 5.4-8.5 13-13 19.2-4.3 6-9.3 12.7-12.8 17.4a7.96 7.96 0 0 1-11.1 1.7l-15.3-10.9c-3.5-2.5-8.4-1.8-11 1.7-9.6 12.6-32.9 41.8-58.9 65.1-3.2 2.9-8.1 2.7-11.1-.3l-15.5-15.8c-3-3.1-7.9-3.2-11.1-.3-83.2 75.9-187.7 128.8-303.5 148.9-8.9 1.5-17.4-4.6-18.6-13.6l-2.2-16M2645.8 394l-10.7-26c-6.3-15.4-23.9-22.6-39.3-16.3-79.8 32.8-151.1 77.9-213.7 135.2-3.2 2.9-3.5 7.9-.6 11.2l37.3 42.8c3 3.4 8.1 3.7 11.5.6 17.3-16 34.3-30 53.3-44 3.7-2.7 4.4-8.1 1.4-11.6l-43.5-52c-5.5-6.5-15.1-7.7-21.9-2.5-15.9 12-29.9 23.6-44.7 36.9-6.4 5.8-16.3 5.4-22.3-.8l-39.6-41.4c-6.3-6.5-5.8-17 .9-23 58.1-52.1 123.6-96.3 194.7-130.6"/>
      <circle class="st13" cx="2520.2" cy="265.9" r="12.5"/>
      <path class="st13" d="M2476.8 231l-50.8 29.3c-3.8 2.2-8.7.9-10.9-2.9l-13.9-24.1c-2.2-3.8-.9-8.7 2.9-10.9l50.8-29.3c3.8-2.2 8.7-.9 10.9 2.9l13.9 24.1c2.2 3.8.9 8.7-2.9 10.9zM3183.8 1062.4s0-3.8-3.8-6.7c-4.6-3.4-9.9-2.2-10.9.9-1.9 5.8 4.3 7.5 4.3 7.5s-21.8 3.1-18.3 18.1c3.5 15.1-5.9 24.2-16.5 19.5-14.2-6.2-9.3-20.5-10.1-25.5-1.8-11.2-14.3-4.6-17.8-15.2-2.3-6.9 5.1-12.1 13.3-15.7 5.6-2.5 5.6-8.3 4-12-3.8-9.1.9-15.2 8.9-16.9 6.3-1.4 10.7 5.1 11.3 11.3.6 6 7.6 8.5 13 .4 5.5-8.4 15.1-7 16.3 6.4 1.3 14.4 24 4.6 26.2-8.8 2.5-15.6-3.4-25.9-4.9-39.7-2.1-18.8 7.6-27 21.5-29.8l14.6-2.9c17.2-3.4 27.8-20.8 23-37.7-20.2-70.9-59.5-133.9-111.9-182.9-11.7-11-30.1-10.6-41.5.7l-30.5 30.3c-5.5 5.5-14.1 6.1-20.5 1.7-29.8-20.8-63.3-36.5-99.3-46.1-2-.5-3.3-2.3-3.3-4.3v-.1c0-4-2.9-7.3-6.8-7.9l-57.1-7.5c-2-.3-3.8-1.3-5-2.9l-6.4-8c-1.6-2-4.6-2-6.2 0l-6.4 8c-1.3 1.6-3.1 2.6-5 2.9l-57.1 7.5c-3.9.6-6.8 4-6.8 7.9 0 2.1-1.3 3.9-3.3 4.4-50.9 13.6-96.8 39.5-134.2 74.4-6.1 5.6-15.5 5.6-21.6.1l-101.4-92.1c-6.8-6.2-7-16.8-.4-23.3 6.8-6.7 16.3-15.5 27.6-24.5 25.6-20.5 48.5-31.5 48.5-31.5l-4.1-7.1c-1.7-3 .8-6.6 4.2-5.9l52.9 10c2.3.4 3.8 2.8 3.1 5.1l-16.1 52.9c-.9 3.1-5 3.9-7 1.3l-6.1-7.9s-17.1 11-41.2 30.8c-13.3 11-25.8 23.7-34.3 32.8-6.2 6.7-5.6 17.2 1.4 23l42.5 36.2c6.5 5.6 7.6 15.3 2.2 22-45.7 57.7-73 130.7-73 210 0 59.7 16.5 117.5 43.7 166.3 2.2 3.9 1.1 8.8-2.6 11.4l-32.7 23.1c-4.8 3.4-5.9 10-2.5 14.7 3.4 4.8 10 5.9 14.7 2.5l30.5-21.5c4.7-3.4 11.3-2.1 14.5 2.8 2.9 4.5 1.9 10.5-2.4 13.7l-30.4 23.2c-4.7 3.6-5.5 10.3-1.8 14.8 3.6 4.5 10.2 5.2 14.6 1.6l30-24.2c4.2-3.4 10.2-2.7 13.6 1.4 3.2 3.9 2.9 9.6-.7 13.2l-27 26.3c-4.1 4-4.1 10.4-.1 14.4 4 4 10.4 4 14.4 0l28.5-28.5c3.3-3.3 8.4-3.6 12.1-.8 4 3.1 4.7 9 1.5 13l-23.3 27.6c-2.9 3.4-2.4 8.6 1.1 11.4l11.5 8.5c46.6 34.3 101.1 58.5 160.2 69.4 11.1 2 18.5 12.6 16.8 23.7-1.7 11.3-12.2 19.2-23.6 17.6-5.2-.7-11.8-1.5-18.1-2.8-10.8-2.1-18.3-4-23.7-5.7-2.9-.9-6 .5-7.2 3.4-2.3 5.5-9.1 17.2-18.2 22.8-12.7 7.9-30.4 11.6-62-4.4-28.7-14.5-90.3-49.6-127.2-84.9-3-2.8-3.3-7.4-.8-10.7l5-6.4c2.4-3.2 2.2-7.6-.6-10.5-34.1-34.5-62.8-74.4-84.8-118.2a8.06 8.06 0 0 0-11.1-3.4l-40.1 22.9c-3.7 2.1-5.1 6.8-3.2 10.6 9.4 18.5 19.9 36.5 31.4 53.7 5.1 7.6 15.6 9.4 22.9 3.9l61.2-46.1c3.4-2.6 8.3-2 11 1.4l21.8 27c2.8 3.5 2.2 8.6-1.3 11.3l-35.8 27.8c-6.9 5.4-16.8 4.2-22.3-2.6-10.6-13.2-27.7-34.9-40.6-53.9"/>
      <path class="st16" d="M3702.1 1455.5c7.9 4 17.6.8 21.6-7.2 63.3-127.2 98.9-270.6 98.9-422.3 0-248.4-95.5-474.5-251.8-643.6-6.2-6.7-16.6-6.9-23-.5l-50.5 50c-6.1 6.1-6.3 15.9-.5 22.3 138.3 150.5 222.8 351.4 222.8 571.9 0 135-31.7 262.7-88 375.9-3.9 7.9-.7 17.4 7.1 21.4l63.4 32.1z"/>
      <path class="st13" d="M3869.6 1230.6c10.6-52 17.3-105.4 19.7-159.9.2-4.6-3.4-8.4-8-8.4h-18.6c-4.3 0-7.8 3.4-8 7.7-2.3 52.4-8.8 103.7-19 153.7-.9 4.4 1.9 8.6 6.3 9.5l18.2 3.6c4.4.9 8.6-1.9 9.4-6.2zM2362.3 1238c2.2 5.3 4.6 10.5 6.9 15.7 3.3 7.1.8 15.5-5.6 19.9l-40.9 30.2c-6.8 4.6-9.1 13.6-5.2 20.9 25.1 46.6 56.3 90.5 93.4 130.2 4 4.3 5.7 10.3 4.5 16.1l-.9 4.5c-1.3 6.1.7 12.4 5.1 16.8 21.2 20.5 44 39.8 68.4 57.7 6.4 4.7 15.5 3.2 19.9-3.4 19-28 30.8-19.8 31.7-28.1.7-5.9-9.3-2.6-10.7-8.4-1.5-6.6 7.7-6.7 5.4-12.4-2.4-6.1-15.9.2-18.5-11.8-2.8-13 18.8-12 20.8-17.2s-8.9-5.4-8.5-14.8c.4-10 13.2-7.5 21.2-6.5s11 3.2 15.8-6.4 14.5-12.6 22.2-7.4 6.8 18.8-.8 27.2-21.5 6-28 12.8-3.2 21.8-3.2 21.8-4.4-2.9-8.7.6-1 10.7 4.4 11.9c3.6.8 7-.7 7-.7 3.2 4.7 17 16.2 26.9 9 9.9-7.2 4.7-28.7.2-34.6-4.7-6.4-11.7-6-12.8-.1-1 5.4 8 11.1 7.8 14.3-.2 3.2-5.2 3.9-5.2 3.9"/>
      <path class="st13" d="M2659.7 1483.1c10.1 7.3 22.1 12.1 33.7 16.6 12 4.7 24.3 8.7 36.6 12.5 37.7 11.5 76.8 17.9 116.1 19.9 8.7.4 17.4.7 26.1.7 125.5 0 240.4-45.6 329-121.2 3.3-2.8 3.8-7.8 1-11.2L3174 1366c-2.8-3.5-8-3.9-11.4-1-56.2 48.2-124 82.5-199 98-2.8.6-5 2.5-6 5.2l-12.7 36c-1.7 2.4-5.1 2.7-7.2.7l-17.1-16.1a6.39 6.39 0 0 0-5.1-1.7c-39.8 3.8-79.1 2.3-117-3.8-4.4-.7-8.5 2.3-9.2 6.7l-77.1 525.2c-1.3 8.7 4.7 16.9 13.5 18.2 47.8 6.9 96.8 10.5 146.5 10.5 426.7 0 792-262.5 943.4-634.7 1.6-4-.2-8.5-4.1-10.3l-16.9-7.8c-4.1-1.9-9 0-10.7 4.2-89.9 221.6-258.3 403-470.7 509.7-8 4-17.8.7-21.6-7.3l-60.3-125.2c-3.7-7.8-.5-17.2 7.2-21.1 264.8-133.9 446.4-408.6 446.4-725.6 0-448.8-363.8-812.7-812.7-812.7s-812.7 363.8-812.7 812.7c0 14.1.4 28.2 1.1 42.1v.3c.7 14.1 12.7 24.9 26.8 24.2l189.7-10.3c8.9-.5 15.7-8.2 15.1-17.1-.3-4.3-.5-8.5-.7-12.8-.2-4.6 3.4-8.4 8-8.4h10.8c4.3 0 7.8 3.4 8 7.6 2.6 56.9 15.2 111.5 34.3 162.6M1900.8 696.1c3.9 1.6 5.8 5.9 4.5 9.9-33.2 100.5-51.2 208-51.2 319.7 0 79.5 9.1 156.9 26.4 231.1 1 4.2-1.5 8.4-5.7 9.5l-13.3 3.7c-4.4 1.2-8.9-1.5-9.9-5.9-17.8-76.6-27.3-156.4-27.3-238.5 0-115.3 18.6-226.3 53-330 1.5-4.4 6.4-6.7 10.7-4.9l12.8 5.4zM1898.6 639.5c26.2-63.7 58.5-124.3 96.1-181 2.5-3.8 7.7-4.8 11.4-2.1l10.1 7.4c3.5 2.5 4.3 7.3 2 10.9-36.4 55.3-67 114.8-92.2 176.5-1.7 4.2-6.6 6.2-10.7 4.3l-12.6-5.7c-3.9-1.7-5.7-6.3-4.1-10.3zM3759.7 837.7l-18.5 4.7c-2.9.7-5.9-1-6.6-3.9l-4.7-18.5c-.7-2.9 1-5.9 3.9-6.6l18.5-4.7c2.9-.7 5.9 1 6.6 3.9l4.7 18.5c.7 2.9-1 5.9-3.9 6.6z"/>
      <circle class="st13" cx="3902.5" cy="699.3" r="12.5"/>
      <circle class="st13" cx="3765.6" cy="536.1" r="12.5"/>
      <circle class="st13" cx="3781.6" cy="649.8" r="12.5"/>
      <circle class="st13" cx="3678.8" cy="356.8" r="12.5"/>
      <circle class="st13" cx="3558.1" cy="321.3" r="12.5"/>
      <circle class="st13" cx="3523.7" cy="288.7" r="12.5"/>
      <circle class="st13" cx="3487.7" cy="258.7" r="12.5"/>
      <circle class="st13" cx="3918" cy="1091.5" r="12.5"/>
      <path class="st16" d="M3347.6 445.8C3515.1 583.3 3622 792 3622 1025.7v2.7c0 7.5 5.2 14.1 12.5 15.7l9.4 2.1c7.4 1.6 12.7 8.3 12.5 15.9-2.2 96.3-27.9 195.9-67 283.5-3.4 7.6-12 11.3-19.8 8.6l-6.6-2.3c-7.6-2.6-15.9.8-19.5 8-40.1 80.5-94.3 152.7-159.3 213.5-6.1 5.7-6.7 15.2-1.5 21.7l42.7 53.1c5.3 6.6 4.4 16.6-2 22.1-104.7 89.6-231.5 154.2-371.1 184.3-8.9 1.9-17.6-3.9-19.2-12.9l-.5-2.9c-1.5-8.7-9.8-14.6-18.5-13-47.9 8.4-97.2 12.7-147.6 12.3-253-1.7-489.5-124.5-637.2-306.8-5.3-6.6-16.9-9.8-23.7-4.9L988.8 2368.3"/>
      <path class="st13" d="M3562.9 1400.1c-81.8 150.6-211.5 271.5-368.6 342.2-8.2 3.7-11.7 13.3-7.9 21.4l100.2 211.6c3.7 7.9 13.1 11.4 21.1 7.7 136.9-62.5 258.2-153.6 356.5-265.7 2.9-3.4 8.1-3.7 11.4-.7l13.7 12.3c3.2 2.9 3.6 7.9.7 11.2-78.8 90.2-171.7 167.2-276.1 227.3-7.8 4.5-17.8 1.7-22.1-6.2l-52.5-96.7c-4.2-7.6-1.4-17.2 6.1-21.5 93.9-53.2 171-118.9 240.9-200.2 5.7-6.7 5-16.8-1.7-22.5L3391 1458.7"/>
      <circle class="st13" cx="3567.7" cy="1388.5" r="12.5"/>
      <path class="st13" d="M1928.3 1025.7c0 149.9 35 291.7 97.2 417.6 3.8 7.8 13.2 11 21.1 7.4l18.8-8.7c7.8-3.6 17-.5 20.9 7.1 92.7 176.4 239.2 310.3 422.1 391.7 8.3 3.7 17.9-.2 21.4-8.5l25.3-61.7c3.4-8.3-.6-17.9-9.1-21.1-17.2-6.6-45.2-22.1-66.3-58-23-39-23.3-81.9-22.3-99.7.3-5.3-2-10.4-6.2-13.7-110-83.9-194.2-200-238.5-334.1"/>
      <circle class="st13" cx="1928.3" cy="1011.9" r="12.5"/>
      <path class="st13" d="M2035.1 338.2l-19.1 7.2c-2 .8-2.5 3.5-.8 4.9l15.8 12.9c1.7 1.4 4.3.4 4.6-1.7l3.3-20.2c.4-2.2-1.7-3.9-3.8-3.1zM2063.1 703.4l-18-6.4c-2.8-1-4.3-4.1-3.3-7l6.4-18c1-2.8 4.1-4.3 7-3.3l18 6.4c2.8 1 4.3 4.1 3.3 7l-6.4 18c-1 2.8-4.1 4.3-7 3.3zM2044.8 679.7L416.9 9M2616.5 866.2c-28.9 46.3-45.6 100.9-45.6 159.5 0 9.4.4 18.8 1.3 28 14.9-2.9 28.2 7.3 31.1 22.2 2.9 14.9-6.2 29.2-21 32.1 12.5 44.3 34.9 84.4 64.7 117.9 2.9 3.3 7.9 3.6 11.2.7l38.5-33.4M3898.7 687.4c-142-431.1-547.9-742.2-1026.5-742.2-181.7 0-352.9 44.9-503.2 124.1-8 4.2-11 14.2-6.5 22.1l135 237.6c4.3 7.7 1.6 17.4-6 21.7-31.1 17.6-61 37.3-89.2 58.9-6.9 5.3-8.4 15.1-3.3 22.1l261.1 360.8c4.6 6.3 4 15.1-1.6 20.6-10.1 10.1-19.4 21-28 32.4M3917.2 1104c-1.4 19-3.3 37.8-5.7 56.5-.6 4.3 2.4 8.3 6.7 8.9l16.4 2.7c4.5.7 8.6-2.4 9.2-6.9 5.9-45.7 8.9-92.2 8.9-139.5 0-109.4-16.2-214.9-46.5-314.4"/>
      <path class="st13" d="M3686.8 366.5c145.9 180 233.3 409.4 233.3 659.2 0 17.9-.4 35.7-1.3 53.3"/>
      <path class="st13" d="M3758.1 523.6C3634.4 306 3432.9 138.3 3191.4 58.7c-3.9-1.3-6.2-5.3-5.3-9.3l2.9-13.6c1-4.7 5.8-7.4 10.3-5.9 185.3 60.9 347.9 172 471.4 317.3M3786 661.5c40.1 100.5 64.1 209.1 68.8 322.7.2 4.5 4 8 8.5 7.7l18.6-1.2c4.3-.3 7.7-4 7.5-8.3-6.6-156.8-48.6-304.4-118.3-435.1M3567.3 329.9c87.8 87.7 159 191.8 208.8 307.4M3532.9 297.1c5.5 5 11 10.1 16.5 15.3M3497.4 266.5c5.6 4.6 11.2 9.3 16.7 14.1"/>
      <path class="st13" d="M2881.9 331.1V58.6c0-9 7.4-16.2 16.4-16 218.4 5.7 419.1 82.6 579.7 208.3M3595.1 1566.2l-61.2 72.3c-2.9 3.4-7.9 3.8-11.3.9l-8.4-7.1c-3.4-2.9-3.8-7.9-.9-11.3l61.2-72.3c2.9-3.4 7.9-3.8 11.3-.9l8.4 7.1c3.4 2.9 3.8 7.9.9 11.3z"/>
      <path class="st13" d="M2022.2 357.8c-144.9 184.3-231 417.1-230.5 670.2.4 194.4 52.1 376.7 142.4 534.2 2.2 3.8 7.1 5.1 10.9 2.9l14.4-8.3c3.8-2.2 5.1-7.1 3-10.9-34-59.5-63.7-125.2-85.7-191.2-1.4-4.3 1-9 5.3-10.2l13.6-4c4.1-1.2 8.5 1.1 9.9 5.2 54.3 164.2 149.3 309.9 273 425.1 3.1 2.9 8.1 2.8 11.1-.2l13.1-13.1c3.2-3.2 3.1-8.5-.3-11.5-194.1-179.2-313.1-433.3-313.7-718.2-.1-31.4 1.4-62.5 4.2-93.2.8-8.7 8.3-15.1 17-14.6l167.3 11.2c8.4.6 15.8-5.4 16.9-13.7 10.8-78.2 35.1-155.7 67.1-224.8 2.5-5.4.4-11.8-4.9-14.6l-92-49.1c-3.8-2-5.3-6.8-3.4-10.6 4.2-8.3 7-14.5 11.3-22.7 2.1-3.9 7-5.4 10.9-3.3 18.7 10.1 69.7 37.8 91.1 49.3 5.3 2.9 12 1 15-4.3l.2-.3c3-5.3 1.2-12.1-4.1-15.2l-89.1-52.1c-3.8-2.2-5.1-7.2-2.8-11 4.1-6.8 8.7-14.3 12.9-21 2.4-3.8 7.5-4.9 11.2-2.4 17.8 11.9 65.5 43.7 85.8 57.3 5.1 3.4 12.1 2 15.5-3.1l.3-.5c3.4-5 2.1-11.8-2.8-15.3l-84.4-60.4c-3.5-2.5-4.4-7.4-2-11 4.7-6.8 9.5-13.6 14.3-20.3 2.6-3.6 7.6-4.3 11.2-1.7l84 61.7c4.8 3.6 11.6 2.6 15.4-2.1 3.8-4.8 3-11.7-1.6-15.5l-80.2-66.4c-3.4-2.8-3.9-7.7-1.2-11.1 5.6-7.1 10.1-12.4 16-19.2 2.9-3.4 8-3.7 11.3-.8 16.2 14.1 60.5 52.6 78.9 68.7 4.6 4 11.4 3.6 15.5-.8l.2-.2c4.2-4.6 3.9-11.7-.7-15.9l-70.4-63.7c-6.8-6.1-7-16.6-.7-23.1 80.4-81.9 177.9-150.3 284.1-197.2 7.8-3.4 17-.1 20.7 7.6l44.7 90.6c3.7 7.5 12.4 10.8 20.2 7.8 87-33.7 181.5-52.1 280.4-52.1 104.6 0 204.4 20.7 295.5 58.2 8.4 3.5 18-.7 21.1-9.3l38.6-105.2c3.2-8.7 13.1-12.9 21.6-9.1 148.3 66.4 275.8 170.9 370.3 300.9 5 6.9 3.7 16.6-3 21.9l-14 11.1c-7.1 5.7-17.5 4.3-22.9-3.1-93.5-129-221.5-231.5-370.4-293.8-52.9-22.2-108.5-39.3-166.2-50.7-6.1-1.2-12.2-2.3-18.3-3.4-8.9-1.6-17.3 4.5-18.6 13.4L2941.1 611c-1.2 7.8-7.9 13.6-15.8 13.6h-55M4479.2 1678.3l-467.5-209.2M3989.8 1461.6l11.9 16.6c1.3 1.8 4 1.5 4.9-.5l8.5-18.6c.9-2-.7-4.2-2.9-4l-20.3 2c-2.2.2-3.4 2.7-2.1 4.5zM3088.4 1676.7s-3.3 3.9-6.1 2.3-2.8-12.2-7.9-14.2c-5.6-2.3-9.6 3.5-6.8 10.9 2.6 6.9 18 22.9 29.4 18.4s9-22.3 6.8-27.6c0 0 3.1-2 4.4-5.5 1.8-5.2-2.5-11.8-7.7-10.1-2.1.7-3.3 1.9-4.1 3.2-.7 1.1-2.2 1.3-3 .2-2.1-3.1-6.4-7.2-14.3-8.2-7.1-.9-36.8-1.3-50.2 60.1M2838.2 1792.2c-111.3-4.4-224.4-39.3-292.5-71.9-28.7-13.8-33.2-52.9-8.1-72.5 61.7-48.1 140.9-53.2 150-41.1 9.4 12.5 2.8 22.4-10.6 49.5-16.5 33.2-43.7 73.8-52.5 94.4-9.9 23.3-19.9 68.4-27.2 57.1-5.4-8.3 4.3-32.6 8.9-52.3 6.2-26.9 12-58 17.9-77.9 10.3-34.4 25.4-45.8 25.4-45.8"/>
      <path class="st13" d="M3105.2 1682.6s14.9-2.3 17.7 2.8c5.2 9.5 16.5 11 18.8-1.3 1.6-8.6-2.1-19.2-12.8-19-7.6.2-14.8-.5-14.2-6s10.6-26.6-1-36.5c-11-9.3-18.4 2.4-30.7.3-12-2-14.2-12-26.3-7.6-9.6 3.4-4.7 17.4-9.6 23-6.4 7.5-20.5 4.6-36.2 2.6-21.4-2.6-62.5-8.2-84.9 35-13.8 26.4-14.7 55.7-14.7 73.4 0 11.1.1 20 .1 26.7.1 8.7-6.8 15.9-15.5 16.1-7.9.2-15.9.2-23.8.4-3.7.1-5.5.1-9.3.1"/>
      <path class="st13" d="M3119 1664.4c10.2-2.5 14.6-9.9 38.9-13 21.2-2.8 50.8 4.1 63.9 19.9 9.2 11.2 8.2 28.1 8.2 28.1M3154.5 1682.4s.2 29.2-16.3 52.8c-14.5 20.7-45.6 27.4-60.6 29.2-15.1 1.8-36.8.5-38.7 7.5-1.6 6.1 19.8 6 37.4 5.1 20.9-1 54.2-6.4 73.1-23.1 30.2-26.7 33.4-61.5 33.6-63.1"/>
      <path class="st13" d="M3074.1 1744.8c9.9-3.3 19.1-7.8 26.4-14 6.9-5.9 12.4-12.2 16.8-18.4 1.8-2.5 4.9-3.7 7.9-3.1 5.6 1.2 15.1 2.7 24.4 2.3M3105.2 1682.6c-2.8 13.3-12.5 26.4-18.9 32.2-4.6 4.1-9.5 7.6-14.5 10.6M3178.5 1709.5s64.8 0 141.8-58.7c35.5-27.1 28-48.5 21.7-57.3-5.3-7.4-72.7-59.3-94.3-93.5-11.9-18.8-18.3-43.8-26-42.9-8.5 1 1.2 24.5 8 40 6.9 15.7 22.9 51.3 42.3 77.2 17.3 23 43.3 31 43.3 31s-56.9 8.1-75 20.5c-6.6 4.5-11.9 9.6-13.7 16.9"/>
      <path class="st13" d="M3195.8 1653.7c0 1.4.4-20.7 19.6-34.5 19-13.7 75-27 75-27M3345.9 1601.1c-.1-.3 5.7-8.4 1.5-25.8-5.3-21.4-17.1-69-17.3-87.3-.3-21.8 12.7-52 6.7-54.7-7.5-3.3-14.1 19.3-19 39-5.7 23-6.4 54.7-5.4 69.3 1.1 17.4 2.2 27.2 2.2 27.2M3052.6 1777.5l-69.3 8.3c-5.5.7-10.5-3.3-11.2-8.8l-6.6-55.2c-.7-5.5 3.3-10.5 8.8-11.2l84.3-10.1c5.5-.7 10.5 3.3 11.2 8.8l6.6 55.2"/>
      <path class="st13" d="M3005.1 1849.7l-42.1 4.6c-2.7.3-5.2-1.7-5.5-4.4l-8.6-79c-.3-2.7 1.7-5.2 4.4-5.5l42.1-4.6c2.7-.3 5.2 1.7 5.5 4.4l8.6 79c.3 2.7-1.6 5.2-4.4 5.5zM2975.5 1842.7l14-1.5M3467.2 1311.2l-12.8-5.6c-2-.9-3-3.2-2.1-5.3l5.6-12.8c.9-2 3.2-3 5.3-2.1l12.8 5.6c2 .9 3 3.2 2.1 5.3l-5.6 12.8c-.9 2-3.3 2.9-5.3 2.1zM3450.1 1370.3l-12.1-7c-1.9-1.1-2.6-3.6-1.5-5.5l7-12.1c1.1-1.9 3.6-2.6 5.5-1.5l12.1 7c1.9 1.1 2.6 3.6 1.5 5.5l-7 12.1c-1.1 2-3.6 2.6-5.5 1.5zM3407.3 1413l-11.5-7.9c-1.8-1.3-2.3-3.7-1-5.6l7.9-11.5c1.3-1.8 3.7-2.3 5.6-1l11.5 7.9c1.8 1.3 2.3 3.7 1 5.6l-7.9 11.5c-1.3 1.8-3.8 2.2-5.6 1zM3395.1 1454.1l-9 10.7c-1.4 1.7-4 1.9-5.6.5l-10.7-9c-1.7-1.4-1.9-4-.5-5.6l9-10.7c1.4-1.7 4-1.9 5.6-.5l10.7 9c1.7 1.4 1.9 3.9.5 5.6zM3029 1706.1s-2.5 19-21.8 21.8M3007.2 1727.9c-43.7 8.4-88.9 12.7-135 12.7-23 0-45.7-1.1-68.2-3.2M2780.1 1737.5l16.8 11.7c1.8 1.3 4.3.1 4.5-2.1l1.7-20.4c.2-2.2-2.1-3.7-4-2.8l-18.5 8.7c-2 .9-2.3 3.6-.5 4.9zM2839.6 1795l17.7 10.2c1.9 1.1 4.3-.3 4.3-2.5v-20.4c0-2.2-2.4-3.6-4.3-2.5l-17.7 10.2c-1.8 1.2-1.8 3.9 0 5zM2864.6 1667.1l-114.8-9.9a9.8 9.8 0 0 1-8.9-10.5l1.2-13.4a9.8 9.8 0 0 1 10.5-8.9l114.8 9.9c5.4.5 9.3 5.2 8.9 10.5l-1.2 13.4c-.5 5.4-5.2 9.4-10.5 8.9zM2204.2 1431.8s-3.6 3.5-1.9 6.3c1.8 2.7 12.3 2 14.7 6.9 2.6 5.4-2.8 9.8-10.4 7.5-7.1-2.2-24-16.5-20.2-28.1 3.8-11.6 21.7-10.5 27.1-8.6 0 0 1.8-3.3 5.2-4.7 5.1-2.2 12 1.7 10.6 7s-6.7 5.6-6.7 5.6 11.5 10.2 10.2 19.5c-1.3 9.3-12.7 15.7-15.1 26.8-2.5 11.8 6.1 22.8 15.5 22.4s15.4-8.5 13.6-19.1c-1.8-10.6 1.3-14.7 9.2-15.9 8-1.3 19.4-3.6 20.8-15.6 1.9-16.3-23.1-12.4-15.5-30.6 5.8-13.7 51.1 1.3 63.1-19.6 11.3-19.5-22-41.4 11.8-62.5 3.3-2 3.6-6.7 1.7-10-8.9-15.4-32.6-58.1-52.4-108.3M2100.3 1536.2l-35-60.6c-2.3-3.9-.9-9 3-11.3l39.7-22.9c3.9-2.3 9-.9 11.3 3l35 60.6c2.3 3.9.9 9-3 11.3l-39.7 22.9c-4 2.3-9 1-11.3-3z"/>
      <path class="st13" d="M2200.4 1414.8s3.5-16.5-6.2-21.1c-8.4-4-12.4-11.7-8.4-18.1 5.6-8.9 24-11.9 34.9 3.3 7.5 10.5-2.4 18.9 1.5 31.5"/>
      <path class="st13" d="M2068 1480.4c-1.3 4.5-2.9 7.7-5.2 8.2-7.2 1.5-5.5-25.4-1.3-43.9 4.6-20.4 11.3-52.5 32.5-70.5 30.8-26.1 63.3-8.8 66.9-25.4 2.3-11-13.5-42-13.5-42s5.5-4.6 18.3-11.5c20.1-10.9 38.2-10.9 38.2-10.9s24.2 58.8 30.1 68.6c4.4 7.2 26.1 22.3 40.2-3.4 10.9-20 7.1-47.4 3.4-60.5-3.7-13.2-12.5-32.4-7-36 4.9-3.2 10.3 13.4 15.3 29.8 5.5 18 14 45 4.7 68.2-19.2 47.7-68.3 42.8-68.6 46.8"/>
      <path class="st13" d="M2194.2 1393.7c-23.5 2-49.6-23.8-83-6.2-22.4 11.7-33 41.8-36.6 56.5-1.3 5.1-2.2 11.7-3.2 18.3M2203.9 1284.3s-6.2-33.1-44.9-39.4c-38.7-6.3-92.3 14.1-110.7 14.4-16 .3-38.7-13.8-71.3-5.9-32.7 7.9-67.9 22.8-85 32.6-14.3 8.2-19.7 12.9-16.8 16.8 3.7 5 30.5-11.5 57.2-18.5 23.1-6.1 74.5-.1 106 5.7 44.7 8.2 114.8-8.1 114.8-8.1M2147.4 1306.7s-17.7-7.6-31.7-17.5"/>
      <path class="st13" d="M2081.2 1253s-28.2-37.1-16.8-50.4c11.3-13.3 94.9-28.2 108.3-44.3 14.8-17.7 17.1-36.1 23.9-35.9 9.7.3-3.2 33-14.5 47-9 11.2-43.1 48.2-85.7 47 0 0 29.2 16.8 42.5 27.3"/>
      <path class="st13" d="M2201.8 1205s-2.3-7.2-5-19.7c-1.8-8.2 3.1-16.5 11.2-18.8l4.3-1.2c7.9-2.3 12.9-10.2 11.3-18.3-7.3-39.3-11.1-79.9-11.1-121.3 0-79 13.9-154.7 39.3-224.9 2.8-7.7-.7-16.2-8-19.8l-5.1-2.5c-7.5-3.7-10.9-12.6-7.8-20.4 31.7-78.6 78.9-148.3 134.3-207.4"/>
      <path class="st13" d="M2381.7 924.8s-4.6-9.3-23.7-16.4c-25.7-9.7-75.4 10.4-88.7 17.5-13.5 7.2-36.4 24-42.3 19.7s17-17.9 33.6-27.3c18.3-10.3 43.4-26.7 83.1-30.5 49.4-4.8 84.5 21.3 95.2 35.6 7.7 10.3 21.8 17.3 22.4 17"/>
      <path class="st13" d="M2446.6 953.9s-7.8-8.4-11.5-7.9-12.2 3.1-15.4-5.7c-3.9-10.7 9.7-27.3 24.9-28 3.5-.1 6.7 1.8 8.1 5.1 2.3 5.3 8.5 4.7 10.8 3 5.4-3.9 8.4-17 18.3-17 7.2 0 8.8 10 14.3 11.3 7.2 1.8 13.5-11.2 22.8-4 7.3 5.5 3.1 12.2.5 16.8-6.8 12 4.9 16.7 6.5 25.6 3.5 20.6-23.2 36.3-35.4 23.4-10.6-11.2 4.9-31-2.4-36.4-7.2-5.3-14.8.7-13.5-1.6 1.3-2.3 1.7-9.5-5.2-8.1-6.9 1.4-4.3 9.3-4.3 9.3-4.8.4-19.2 5.8-18 16.1 1.1 10.3 19.3 15.6 25.6 14.8 6.7-.8 9.4-6.2 5.5-9.5-3.6-3-11.6 1.2-13.9-.3s-.7-5.5-.7-5.5M2365.4 913c-1.6-.6-30.9 23.3-42.7 45.1-9.3 17.2-10 45.4 8.3 67.6 18.1 21.8 54.6 33.2 68.7 36.4 3.5.8 6 3.8 6.2 7.4.7 11.9 3.3 38.5 13.4 58.9 13.3 27 18.2 34.1 25.3 50.1 7.2 16 16.1 47.7 26.7 48.3 10.6.6-2.9-24.4-2.9-24.4"/>
      <path class="st13" d="M2436.7 946.2c7.4 12.8 5.3 34 8.5 47 5.8 23.7 34.7 40.4 48.4 46.8 13.8 6.5 34.3 12 34.4 19.3s-17.8-.2-35.2-7.8c-19.2-8.4-50.4-19.6-64-43.9-5.8-10.3-8.3-17.8-9-28-.3-3.7-3.9-5.5-7.6-4.8-29.8 5.7-38.3 15.1-51.8 16.2-30.5 2.7-42.6-19.4-42.6-19.4M2390.6 980.5s24.6 9.4 35.3 21.6"/>
      <path class="st13" d="M2447.8 1028.4s8.4 12.3 4.4 27.3c-3.3 12.5-17.1 25.4-17.1 25.4M2411.2 1108.2s-22.7 28.5-31.5 43c-9.2 15.3-16.8 43.7-24 40.9-7.2-2.9 5.2-34.9 13.5-47.9s16.5-60.1 36.7-74.7M2497.2 1144.4l-10.6-45.4c-.7-3 1.2-5.9 4.1-6.6l29.8-6.9c3-.7 5.9 1.2 6.6 4.1l10.6 45.4c.7 3-1.2 5.9-4.1 6.6l-29.8 6.9c-3 .7-5.9-1.2-6.6-4.1z"/>
      <ellipse transform="rotate(-3 2872.102 1025.627) scale(.99997)" class="st17" cx="2872.2" cy="1025.7" rx="1146.4" ry="1146.4"/>
      <path class="st17" d="M245.1 1057.4c-1.9-168.7 12.5-336.9 42.6-502.2M300.1 1563.1c-11.9-57-21.8-114.2-29.8-171.5M349.1 1759.7c-6.6-22.7-12.9-45.6-18.9-68.4M396 147.8c177.7-502.6 509.5-955.9 981.4-1282.4 1193.1-825.6 2829.5-527.6 3655 665.4s527.6 2829.5-665.4 3655-2829.5 527.6-3655-665.4c-139.8-202.1-247.5-416.9-323.9-638.4M338.6 331.1c6-21.8 12.2-43.5 18.7-65.2"/>
      <path d="M2692.8 361.5c36.5-10.8 74.4-18.6 113.2-23.2" fill="none" stroke="#54ffbd" stroke-width="61" stroke-linejoin="round" stroke-miterlimit="10" stroke-dasharray="4,20"/>
      <path class="st19" d="M2896.6 763.5c56.8 4.8 109.1 26.6 151.6 60.4M2690.6 824c43-35 96.6-57.8 155.7-62.6 2.7-.2 5.4-.4 8.1-.5M2810.5 1348.1c-57.8-8.7-99.9-26-144-61.1"/>
      <path class="st20" d="M2656.4 1054.7c-.5-3.9-.9-7.8-1.3-11.8-3.1-38.5 4.1-76.8 19.2-109.6M2658.6 766.2c34-28.9 73.9-51.2 117.8-64.9M2968.9 705.3c39.5 11.5 72.7 27.5 104.9 51.7"/>
      <path class="st13" d="M2199.7 828.5c-4.6 16.4-8.4 33-11.5 49.9-1.6 8.7-9.8 14.5-18.6 13l-167.9-29.8c-8.5-1.5-14.3-9.5-13-18 1.6-10.8 4.4-26.5 9.6-44.7 5.3-18.8 12.3-36.1 17.5-47.5 3.6-8 12.9-11.6 20.9-8.2l153.9 66.4c7.4 3.1 11.3 11.2 9.1 18.9zM2872.5-253.6c632.2 0 1156.9 459.1 1260.2 1061.9.8 4.5 3.5 8.4 7.4 10.7l78.4 45.3c4.2 2.4 7 6.7 7.6 11.6 5.4 49.2 8.1 99.2 8.1 149.8 0 121.3-14.4 233.5-44.1 345.1-1.4 5.4-5.8 9.6-11.3 10.9l-75.5 18c-5.3 1.3-9.5 5.2-11.1 10.4-17.9 56.7-39.6 111.8-64.8 164.8-2.3 4.8-2 10.3.8 14.8l42.3 67.3c2.9 4.7 3.2 10.6.5 15.4-229.1 423.8-676.2 712.3-1191 715.3-4.4 0-8 3.6-8 8v14.3c0 4.4 3.6 8 8 8 532.2-3 993.6-304.5 1225.3-745.6 2.5-4.8 2.3-10.6-.6-15.3l-79.3-126.1c-2.6-4.2-3.1-9.3-1.2-13.9l28.5-70.6c1.8-4.6 5.8-8 10.6-9.2l140.2-34.3c5.4-1.3 9.7-5.5 11.2-10.9 31-115.4 49.7-241.6 49.7-366.5 0-59.8-3.1-113.3-10.3-170.6-.6-4.6-3.3-8.7-7.3-11.2l-79-47.9c-3.7-2.3-6.3-6-7.1-10.3C4048 176.5 3514.3-285.2 2872.5-285.2"/>
      <path class="st13" d="M2993-279.7c-533.5-46.7-1026.1 214.1-1296.7 635.4-2.9 4.6-3.2 10.4-.7 15.3l68.1 132.5c2.2 4.4 2.3 9.6 0 14l-34.6 67.8c-2.2 4.4-6.5 7.4-11.3 8.2l-142.7 22c-5.5.8-10.1 4.6-12.1 9.9-40.9 112.3-70.6 236.3-81.4 360.7-5.2 59.5-6.8 113.1-4.6 170.9.2 4.7 2.5 9 6.3 11.7l74.6 54.6c3.5 2.6 5.8 6.6 6.2 10.9 59 614.1 547 1118.5 1182.4 1177.9 4.4.4 8.3-2.9 8.7-7.3l1.4-15.5c.4-4.4-2.9-8.2-7.2-8.7-626-58.5-1105.3-559.6-1155.4-1166.5-.4-4.6-2.7-8.7-6.5-11.3l-74.1-51.9c-4-2.8-6.4-7.3-6.5-12.2-1.1-49.5.5-99.5 4.9-150 10.6-120.8 34.7-231.3 74-340 1.9-5.3 6.6-9.1 12.2-9.9l76.8-11.3c5.4-.8 9.9-4.4 11.9-9.4 22.7-55 49.2-107.9 78.9-158.5 2.7-4.5 2.9-10.1.5-14.8l-36.3-70.8c-2.5-4.9-2.2-10.8.8-15.4 266.4-404.2 743.1-652 1259.3-606.9"/>
      <ellipse transform="rotate(-56.702 2009.408 1091.911)" class="st13" cx="2009.4" cy="1091.9" rx="7.5" ry="7.5"/>
      <ellipse transform="rotate(-56.702 2008.949 1052.71)" class="st13" cx="2008.9" cy="1052.7" rx="7.5" ry="7.5"/>
      <ellipse transform="rotate(-56.702 2008.436 1014.878)" class="st13" cx="2008.4" cy="1014.8" rx="7.5" ry="7.5"/>
      <ellipse transform="rotate(-56.702 2010.362 976.541)" class="st13" cx="2010.3" cy="976.5" rx="7.5" ry="7.5"/>
      <path class="st13" d="M2872.2-1515c1403.2 0 2540.7 1137.5 2540.7 2540.7S4275.4 3566.4 2872.2 3566.4 331.5 2428.9 331.5 1025.7c0-160.6 14.9-317.8 43.4-470.1"/>
      <path class="st13" d="M396 1025.7c0-1367.6 1108.6-2476.2 2476.2-2476.2S5348.4-341.9 5348.4 1025.7 4239.7 3501.9 2872.2 3501.9c-1144 0-2106.7-775.7-2391-1829.9"/>
      <path class="st13" d="M546.3 469.3c250.8-1052.1 1197-1834.5 2325.9-1834.5 1320.5 0 2391 1070.5 2391 2391s-1070.5 2391-2391 2391M536.2 1537.7c-36-165-55-336.3-55-512.1 0-75.8 3.5-150.9 10.4-224.9"/>
      <path class="st13" d="M2872.2-1287c1277.3 0 2312.7 1035.4 2312.7 2312.7S4149.5 3338.4 2872.2 3338.4c-1089.7 0-2003.4-753.7-2248.3-1768.3-42.1-174.6-64.5-356.9-64.5-544.5"/>
      <circle class="st13" cx="559.5" cy="1000.4" r="23.3"/>
      <circle class="st13" cx="687" cy="891.6" r="12.5"/>
      <circle class="st13" cx="687" cy="1104.4" r="12.5"/>
      <path class="st13" d="M365.2 552.5l20 4c2.1.4 4-1.6 3.3-3.7l-6.6-19.3c-.7-2.1-3.4-2.6-4.8-1l-13.5 15.4c-1.4 1.6-.5 4.2 1.6 4.6z"/>
      <g>
        <path class="st13" d="M2715.5 616.2l13.5-5.9-5.1-11.5M2714 605.5l19.3-8.5M2695.4 570.5l13.5-5.9-5-11.6M2694 559.7l19.2-8.4M2723 573.6l3.8 8.6c.4 1 0 2.2-1 2.6l-18.3 8c-1 .4-2.2 0-2.6-1l-3.8-8.6c-.4-1 0-2.2 1-2.6l18.3-8c1-.4 2.2 0 2.6 1z"/>
      </g>
    </g>
  </g>
</svg>
