<svg width="273" height="203" viewBox="0 0 273 203" fill="none" xmlns="http://www.w3.org/2000/svg">
<mask id="mask0_19_9" style="mask-type:alpha" maskUnits="userSpaceOnUse" x="10" y="64" width="248" height="106">
<path d="M68.2043 72.6459C73.1953 72.5423 76.0922 77.9554 76.13 79.779C76.14 80.2589 75.952 80.4549 75.76 80.4588C67.1219 80.6381 52.6315 99.5668 52.729 104.27C52.741 104.846 52.457 105.044 52.0731 105.052C50.8254 105.077 48.1901 103.02 48.1543 101.292C48.0308 95.3413 53.2204 86.3037 58.5618 79.9515C41.3493 83.3813 23.7795 101.99 23.905 108.037C24.0603 115.523 50.2989 112.098 50.6016 126.687C50.8068 136.573 32.4918 147.035 21.6462 147.26C13.7759 147.423 11.9049 140.548 11.8471 137.765C11.8192 136.421 12.0653 134.4 13.423 135.044C15.7743 137.299 18.8655 138.196 22.1288 138.128C32.3986 137.915 44.9787 128.724 44.9229 126.036C44.8094 120.566 12.4604 121.045 12.1875 107.896C11.9306 95.5142 37.4929 73.3792 58.2245 72.949C59.7602 72.9171 61.6077 74.031 63.0772 75.4409C65.0589 73.7674 66.8606 72.6738 68.2043 72.6459ZM110.608 109.502C110.796 109.306 111.175 109.106 111.559 109.098C112.807 109.072 114.561 110.284 114.581 111.244C114.585 111.436 114.493 111.63 114.305 111.826C112.143 114.079 94.4245 139.412 86.7462 139.572C83.195 139.645 76.9925 136.893 76.9208 133.438C76.8392 129.503 86.3666 112.022 93.24 100.837C82.1196 110.957 64.7597 130.426 61.9317 137.59C61.6578 138.268 61.4777 138.848 61.4877 139.328C61.5176 140.767 60.5598 140.883 59.2021 140.239C56.9707 139.133 53.2657 136.426 53.2139 133.93C53.0984 128.363 71.4432 96.1998 75.2987 92.279C75.5806 91.985 76.0585 91.8791 76.6344 91.8672C79.3218 91.8114 84.2785 94.6852 84.3243 96.8927C84.3323 97.2766 78.7209 104.499 73.0573 113.834C83.566 101.998 96.0202 91.3689 100.723 91.2713C103.411 91.2155 108.369 94.1853 108.415 96.3928C108.423 96.7768 108.333 97.0667 108.051 97.3606C104.858 100.788 85.9429 133.251 88.4384 133.199C91.9896 133.125 108.728 111.462 110.608 109.502ZM147.02 108.747C147.208 108.551 147.588 108.351 147.972 108.343C149.219 108.317 150.877 109.531 150.897 110.491C150.901 110.683 150.809 110.877 150.621 111.072C146.015 115.873 131.317 138.647 114.328 138.999C109.049 139.109 102.591 133.29 102.482 128.011C102.263 117.453 121.299 90.8444 130.513 90.6532C132.144 90.6193 134.286 92.0152 135.661 93.523C138.541 93.4633 142.594 94.4354 142.66 97.6027C142.871 107.777 124.635 126.687 115.133 126.884C114.461 126.898 113.883 126.814 113.304 126.634C112.945 127.89 112.779 129.141 112.799 130.101C112.845 132.309 113.929 133.63 116.424 133.579C127.558 133.348 141.096 114.823 147.02 108.747ZM134.017 97.59C128.884 100.097 119.813 111.808 115.304 121.215C115.4 121.213 115.593 121.305 115.785 121.301C121.448 121.184 133.953 103.737 134.017 97.59ZM194.143 107.769C194.331 107.573 194.711 107.373 195.095 107.365C196.343 107.339 198.096 108.551 198.116 109.511C198.12 109.703 198.028 109.897 197.84 110.093C195.677 112.25 177.96 137.679 170.282 137.838C166.731 137.912 160.528 135.16 160.455 131.609C160.373 127.674 170.178 109.706 177.054 98.6174C164.412 109.442 142.998 132.547 143.104 137.634C143.126 138.69 142.846 139.08 142.462 139.088C140.926 139.12 134.898 135.5 134.828 132.141C134.715 126.67 168.4 70.2788 172.256 66.358C172.538 66.0641 173.013 65.8622 173.589 65.8502C176.277 65.7945 181.235 68.7642 181.281 70.9718C181.287 71.2597 181.199 71.6456 180.917 71.9395C178.38 74.5847 164.791 95.3191 154.691 113.004C165.96 100.768 179.556 89.6356 184.259 89.538C186.946 89.4822 191.905 92.452 191.951 94.6595C191.959 95.0434 191.869 95.3334 191.587 95.6273C187.735 99.7401 171.708 127.919 171.776 131.182C171.78 131.374 171.782 131.47 171.974 131.466C175.525 131.392 192.264 109.728 194.143 107.769ZM216.902 107.201C217.09 107.005 217.472 106.901 217.76 106.895C219.008 106.869 220.759 107.985 220.781 109.041C220.785 109.233 220.693 109.426 220.505 109.622C218.437 111.778 200.721 137.207 193.043 137.366C189.395 137.442 183.287 134.592 183.215 131.137C183.102 125.666 199.152 98.639 202.912 94.7202C203.194 94.4262 203.672 94.3203 204.248 94.3084C206.935 94.2526 211.894 97.2224 211.94 99.4299C211.946 99.7178 211.858 100.104 211.576 100.398C207.816 104.316 194.279 127.546 194.343 130.618C194.347 130.81 194.445 130.904 194.637 130.9C198.284 130.824 215.022 109.16 216.902 107.201ZM220.459 65.7419C226.601 65.6145 230.16 70.5337 230.212 73.0291C230.23 73.893 229.858 74.4768 228.994 74.4947C226.019 74.5565 219.875 83.9019 219.903 85.2456C219.915 85.8215 219.345 86.1214 218.481 86.1393C216.082 86.1891 211.527 84.1712 211.449 80.428C211.402 78.1245 216.044 65.8335 220.459 65.7419ZM220.91 136.788C217.263 136.864 210.501 134.891 209.911 129.622C208.866 120.906 229.94 72.1706 244.671 64.8554C245.811 64.2557 246.675 64.2377 247.543 64.4118C249.568 64.8498 252.107 66.9096 253.201 68.7113C255.145 69.8232 256.258 72.5847 256.096 74.0284C255.566 80.8569 239.002 97.044 226.847 108.243C222.086 119.384 219.593 128.845 221.343 129.865C225.908 132.363 242.796 108.68 244.676 106.72C244.864 106.524 245.244 106.324 245.628 106.317C246.875 106.291 248.629 107.503 248.649 108.462C248.653 108.654 248.659 108.942 248.471 109.138C246.407 111.485 228.589 136.629 220.91 136.788ZM232.365 96.5095C240.916 87.4982 249.357 77.817 250.215 72.9022C244.154 76.9648 237.725 86.4122 232.365 96.5095Z" fill="black"/>
<path d="M25.3771 168.181C118.591 118.984 212.482 152.887 245.087 157.983" stroke="black" stroke-width="2"/>
</mask>
<g mask="url(#mask0_19_9)">
<rect x="10.3914" y="11.4882" width="268" height="185" transform="rotate(8.88223 10.3914 11.4882)" fill="url(#paint0_linear_19_9)"/>
</g>
<defs>
<linearGradient id="paint0_linear_19_9" x1="10.3914" y1="14.4882" x2="278.391" y2="196.488" gradientUnits="userSpaceOnUse">
<stop stop-color="#F5F5F5"/>
<stop offset="1" stop-color="#78716C"/>
</linearGradient>
</defs>
</svg>
