<svg id="visual" viewBox="0 0 900 600" width="900" height="600" xmlns="http://www.w3.org/2000/svg" xmlns:xlink="http://www.w3.org/1999/xlink" version="1.1"><path d="M0 239L37.5 230.3C75 221.7 150 204.3 225 223.3C300 242.3 375 297.7 450 304C525 310.3 600 267.7 675 241.5C750 215.3 825 205.7 862.5 200.8L900 196L900 601L862.5 601C825 601 750 601 675 601C600 601 525 601 450 601C375 601 300 601 225 601C150 601 75 601 37.5 601L0 601Z" fill="#78716c" stroke-linecap="round" stroke-linejoin="miter"></path></svg>